EBGaramondCaption-Regular.sfdir

StartChar: quotedbl
Encoding: 34 34 4
Width: 309
Flags: W
HStem: 444 232<70.2416 79.4949 201.242 210.495>
VStem: 55 82<553.576 658.955> 186 82<553.576 658.955>
LayerCount: 2
Fore
SplineSet
183 620 m 0
 183 634 194 648 202 655 c 0
 218 668 238 676 254 676 c 0
 264 676 268 661 268 644 c 0
 268 592 228 505 212 469 c 0
 207 457 198 444 193 444 c 0
 188 444 186 458 186 467 c 0
 187 488 186 506 186 524 c 0
 186 560 183 619 183 620 c 0
52 620 m 0
 52 634 63 648 71 655 c 0
 87 668 107 676 123 676 c 0
 133 676 137 661 137 644 c 0
 137 592 97 505 81 469 c 0
 76 457 67 444 62 444 c 0
 57 444 55 458 55 467 c 0
 56 488 55 506 55 524 c 0
 55 560 52 619 52 620 c 0
EndSplineSet
Validated: 33
EndChar

StartChar: numbersign
Encoding: 3 35 5
Width: 728
VWidth: 982
Flags: W
HStem: 172 65<47.331 165 252 387 474 627.386> 389 65<116.331 246 334 468 556 696.386>
LayerCount: 2
Fore
SplineSet
312 563 m 2
 323 592 343 626 370 626 c 0
 402 626 384 587 360 524 c 2
 334 454 l 1
 493 454 l 1
 534 563 l 2
 545 592 564 626 583 626 c 0
 614 626 606 587 582 524 c 2
 556 454 l 1
 632 454 l 2
 655 454 701 444 701 420 c 0
 701 406 673 389 617 389 c 2
 531 389 l 1
 474 237 l 1
 563 237 l 2
 586 237 632 227 632 203 c 0
 632 189 604 172 548 172 c 2
 449 172 l 1
 408 62 l 2
 397 33 379 0 348 0 c 0
 330 0 333 30 360 101 c 2
 387 172 l 1
 227 172 l 1
 186 62 l 2
 175 33 157 0 135 0 c 0
 117 0 111 30 138 101 c 2
 165 172 l 1
 112 172 l 2
 83 172 42 183 42 208 c 0
 42 222 69 237 126 237 c 2
 189 237 l 1
 246 389 l 1
 181 389 l 2
 152 389 111 400 111 425 c 0
 111 439 138 454 195 454 c 2
 271 454 l 1
 312 563 l 2
309 389 m 1
 252 237 l 1
 411 237 l 1
 468 389 l 1
 309 389 l 1
EndSplineSet
Validated: 33
EndChar

StartChar: dollar
Encoding: 4 36 6
Width: 409
VWidth: 982
Flags: W
HStem: -10 41<123.57 166 216 255.052> 543 58<174.442 215> 689 20G<254.5 267.5>
VStem: 34 59<58.6708 135.091> 54 92<406.798 504.058> 288 98<82.6427 186.987>
LayerCount: 2
Fore
SplineSet
220 601 m 1xec
 226 673 l 2
 228 693 246 709 263 709 c 0
 272 709 276 702 273 673 c 2
 266 597 l 1
 291 592 317 583 333 574 c 0
 366 555 367 524 367 489 c 0
 367 476 362 462 347 462 c 0
 335 462 328 475 307 508 c 0
 295 527 278 537 261 541 c 1
 244 341 l 1
 338 262 l 2
 368 237 386 198 386 160 c 0
 386 68 305 2 213 -9 c 1
 206 -89 l 2
 205 -106 187 -119 171 -119 c 0
 161 -119 158 -111 159 -91 c 2
 166 -10 l 1
 136 -7 100 2 80 11 c 0
 43 28 34 39 34 71 c 0
 34 103 41 138 61 138 c 0
 77 138 84 123 93 93 c 0xf4
 102 64 129 39 170 31 c 1
 189 252 l 1
 98 327 l 2
 69 350 54 379 54 417 c 0
 54 512 128 594 220 601 c 1xec
233 216 m 1
 216 29 l 1
 261 38 288 86 288 138 c 0
 288 166 270 186 248 204 c 2
 233 216 l 1
200 378 m 1
 215 543 l 1
 173 536 146 497 146 453 c 0xec
 146 420 168 406 197 381 c 2
 200 378 l 1
EndSplineSet
Validated: 33
EndChar

StartChar: parenleft
Encoding: 40 40 10
Width: 291
VWidth: 982
Flags: W
VStem: 45 51<58.1523 384.781>
LayerCount: 2
Fore
SplineSet
264 723 m 0
 282 723 293 716 293 704 c 0
 293 693 275 682 256 658 c 0
 159 531 96 407 96 190 c 0
 96 52 169 -86 243 -165 c 0
 276 -200 293 -202 293 -236 c 8
 293 -244 284 -249 277 -249 c 0
 249 -249 210 -202 177 -162 c 0
 79 -41 45 102 45 216 c 0
 45 426 118 561 213 684 c 0
 232 709 251 723 264 723 c 0
EndSplineSet
Validated: 1
EndChar

StartChar: parenright
Encoding: 9 41 11
Width: 291
VWidth: 982
Flags: W
VStem: 197 51<89.2189 415.848>
LayerCount: 2
Fore
SplineSet
29 -249 m 0
 11 -249 0 -242 0 -230 c 0
 0 -219 18 -208 37 -184 c 0
 134 -57 197 67 197 284 c 0
 197 422 124 560 50 639 c 0
 17 674 0 676 0 710 c 8
 0 718 9 723 16 723 c 0
 44 723 83 676 116 636 c 0
 214 515 248 372 248 258 c 0
 248 48 175 -87 80 -210 c 0
 61 -235 42 -249 29 -249 c 0
EndSplineSet
Validated: 1
EndChar

StartChar: asterisk
Encoding: 42 42 12
Width: 395
VWidth: 982
Flags: W
HStem: 447 52<246.948 368.401> 540 20G<37 54.5>
VStem: 171 64<519.313 618.105> 174 90<354.799 399.254>
LayerCount: 2
Fore
SplineSet
235 602 m 0xe0
 235 588 232 569 225 536 c 0
 223 523 222 512 222 510 c 0
 222 503 233 501 246 501 c 0
 266 501 301 500 328 499 c 0
 357 498 372 490 372 478 c 0
 372 459 337 452 281 447 c 0
 238 443 228 435 234 419 c 0
 245 392 264 349 264 318 c 0
 264 307 258 291 246 291 c 0
 218 291 199 353 174 396 c 0xd0
 168 406 167 416 157 405 c 256
 153 400 139 390 120 370 c 0
 98 347 81 333 61 333 c 0
 46 333 37 341 37 356 c 0
 37 363 50 381 76 404 c 0
 105 430 114 449 114 456 c 0
 114 463 99 476 85 484 c 8
 56 501 24 521 24 545 c 8
 24 555 30 560 44 560 c 0
 65 560 79 552 110 537 c 0
 123 530 146 519 151 519 c 0
 158 519 161 536 171 569 c 0
 184 612 200 633 213 633 c 0
 230 633 235 609 235 602 c 0xe0
EndSplineSet
Validated: 33
EndChar

StartChar: plus
Encoding: 11 43 13
Width: 459
VWidth: 982
Flags: W
HStem: 173 65<46.7198 200 265 418.069>
VStem: 200 65<17.4503 172 238 393.173>
LayerCount: 2
Fore
SplineSet
200 172 m 1
 95 172 l 2
 74 172 42 177 42 202 c 0
 42 220 63 238 95 238 c 2
 200 238 l 1
 200 343 l 2
 200 379 217 396 232 396 c 0
 247 396 265 386 265 354 c 2
 265 238 l 1
 380 238 l 2
 405 238 422 225 422 210 c 0
 422 195 409 173 379 173 c 2
 265 173 l 1
 265 56 l 2
 265 37 258 16 233 16 c 0
 208 16 200 32 200 54 c 2
 200 172 l 1
EndSplineSet
Validated: 1
EndChar

StartChar: hyphen
Encoding: 13 45 244
Width: 386
VWidth: 982
Flags: W
HStem: 194 77<232.833 345.786>
VStem: 45 306<196.922 245.107>
LayerCount: 2
Fore
SplineSet
320 271 m 2
 334 272 351 266 351 243 c 8
 351 220 341 195 318 194 c 2
 99 176 l 2
 65 173 45 175 45 195 c 0
 45 214 56 249 82 252 c 2
 320 271 l 2
EndSplineSet
Validated: 33
EndChar

StartChar: slash
Encoding: 47 47 16
Width: 237
VWidth: 982
Flags: W
HStem: 681 20G<317.5 338.5>
LayerCount: 2
Fore
SplineSet
342 667 m 2
 43 -18 l 2
 35 -36 24 -46 7 -46 c 8
 -12 -46 -5 -17 4 3 c 2
 282 648 l 2
 299 687 305 701 330 701 c 0
 347 701 349 683 342 667 c 2
EndSplineSet
Validated: 33
EndChar

StartChar: one
Encoding: 17 49 18
Width: 276
VWidth: 982
Flags: W
HStem: -2 46<16.002 85.6687 191.331 260.065> 377 46<21.7598 85.6687 190.145 254.28>
VStem: 97 83<53.0419 367.958>
LayerCount: 2
Fore
SplineSet
180 313 m 2
 180 108 l 2
 180 83 191 52 218 44 c 0
 245 36 261 28 261 18 c 0
 261 8 253 -2 227 -2 c 0
 205 -2 155 4 139 4 c 0
 119 4 72 -2 50 -2 c 0
 24 -2 15 8 15 18 c 0
 15 28 32 36 59 44 c 0
 86 52 97 83 97 108 c 2
 97 313 l 2
 97 338 86 369 59 377 c 0
 32 385 21 393 21 403 c 0
 21 413 29 423 55 423 c 0
 77 423 122 417 138 417 c 0
 158 417 198 423 220 423 c 0
 246 423 255 413 255 403 c 0
 255 393 243 385 216 377 c 0
 189 369 180 338 180 313 c 2
EndSplineSet
Validated: 1
EndChar

StartChar: two
Encoding: 50 50 19
Width: 415
VWidth: 982
Flags: W
HStem: 4 63<157.73 331.983> 361 68<135.162 241.878>
VStem: 256 85<265.101 347.276>
LayerCount: 2
Fore
SplineSet
272 68 m 2
 300 65 325 79 341 98 c 0
 363 125 374 146 384 146 c 0
 393 146 398 138 398 121 c 0
 398 71 361 -2 347 -2 c 0
 310 -2 265 4 208 4 c 0
 143 4 61 -2 56 -2 c 0
 53 -2 40 15 40 19 c 0
 40 23 43 27 47 31 c 0
 64 48 83 65 99 78 c 0
 121 96 256 211 256 292 c 0
 256 339 232 361 194 361 c 0
 149 361 120 351 86 313 c 0
 82 309 77 303 71 303 c 0
 65 303 58 319 58 325 c 0
 58 334 105 429 223 429 c 0
 287 429 341 384 341 321 c 0
 341 289 295 224 271 195 c 0
 241 159 168 82 158 75 c 0
 152 71 161 67 167 67 c 2
 272 68 l 2
EndSplineSet
Validated: 33
EndChar

StartChar: four
Encoding: 52 52 21
Width: 529
VWidth: 982
Flags: W
HStem: 24 63<131.109 272.95 357.083 484.917>
VStem: 273 83<-155.673 23.7968 87.1286 273>
LayerCount: 2
Fore
SplineSet
334 432 m 0
 351 432 356 403 356 367 c 2
 356 109 l 2
 356 94 358 87 383 87 c 2
 476 87 l 2
 487 87 492 81 492 68 c 0
 492 46 473 25 441 25 c 2
 374 25 l 2
 360 25 356 8 356 -15 c 2
 356 -114 l 2
 356 -142 328 -169 300 -169 c 0
 278 -169 273 -154 273 -139 c 2
 273 1 l 2
 273 16 268 24 247 24 c 2
 75 24 l 2
 52 24 42 36 42 48 c 0
 42 62 59 78 75 100 c 2
 300 413 l 2
 310 428 325 432 334 432 c 0
129 104 m 2
 119.595 91.0557 125 87 144 87 c 2
 260 87 l 2
 276 87 273 93 273 108 c 2
 273 273 l 2
 273 290 272.817 302.135 264 290 c 2
 129 104 l 2
EndSplineSet
Validated: 1
EndChar

StartChar: six
Encoding: 22 54 23
Width: 474
VWidth: 982
Flags: W
HStem: -10 44<204.765 308.754> 321 37<182.499 272.7>
VStem: 42 100<114.492 294.193> 345 96<110.853 255.808>
LayerCount: 2
Fore
SplineSet
367 570 m 0
 381 570 387 564 387 552 c 0
 387 545 369.989 527.066 344 515 c 0
 288 489 202 429 177 353 c 0
 174.188 344.45 189.257 348.419 194 350 c 0
 209 355 232 358 250 358 c 0
 341 358 441 289 441 201 c 0
 441 97 354 -10 246 -10 c 0
 116 -10 42 95 42 230 c 0
 42 364 180 495 306 554 c 0
 329 565 351 570 367 570 c 0
142 198 m 0
 142 126 190 34 260 34 c 0
 330 34 345 122 345 192 c 0
 345 257 280 321 206 321 c 16
 155 321 142 251 142 198 c 0
EndSplineSet
EndChar

StartChar: seven
Encoding: 23 55 24
Width: 424
VWidth: 982
Flags: W
HStem: 333 85<99.6065 316.998>
VStem: 42 47<269.39 320.789> 66 79<-181.48 -135>
LayerCount: 2
Fore
SplineSet
326 418 m 2xc0
 378 418 404 415 404 394 c 0
 404 376 400 370 383 336 c 2
 145 -135 l 2
 122 -181 120 -209 82 -209 c 0
 71 -209 66 -196 66 -179 c 0xa0
 66 -174 75 -154 88 -129 c 2
 297 268 l 2
 301 276 317 305 317 317 c 0
 317 329 315 333 286 333 c 2
 147 333 l 2
 123 333 96 315 89 295 c 0
 84 279 70 267 57 267 c 0
 45 267 42 274 42 295 c 0
 42 305 52 330 60 351 c 8
 72 382 86 418 112 418 c 2
 326 418 l 2xc0
EndSplineSet
Validated: 1
EndChar

StartChar: eight
Encoding: 24 56 25
Width: 373
VWidth: 982
Flags: W
HStem: -8 40<160.134 256.753> 526 38<172.118 253.247>
VStem: 38 90<62.7628 187.647> 66 82<400.354 497.306> 283 70<391.676 498.736> 284 90<64.4655 189.519>
LayerCount: 2
Fore
SplineSet
128 129 m 0xe4
 128 84 158 32 203 32 c 0
 240 32 284 62 284 99 c 0
 284 151 271 191 232 226 c 2
 196 259 l 1
 162 225 l 2
 136 199 128 164 128 129 c 0xe4
283 445 m 0xd8
 283 483 250 526 209 526 c 0
 172 526 148 483 148 446 c 0
 148 414 175 396 200 371 c 2
 226 345 l 1
 253 369 l 2
 276 390 283 414 283 445 c 0xd8
164 289 m 1
 105 342 l 2
 77 368 66 393 66 431 c 0
 66 515 151 564 235 564 c 0
 301 564 353 509 353 443 c 0xd8
 353 412 333 392 311 370 c 2
 255 315 l 1
 325 244 l 2
 359 210 374 179 374 131 c 0
 374 33 262 -8 164 -8 c 0
 95 -8 38 49 38 118 c 0xe4
 38 185 83 216 133 261 c 2
 164 289 l 1
EndSplineSet
Validated: 1
EndChar

StartChar: nine
Encoding: 25 57 26
Width: 468
VWidth: 982
Flags: W
HStem: -143 57<52.377 119.687> 394 36<208.472 307.625>
VStem: 41 99<151.019 315.505> 353 99<143.012 335.689>
LayerCount: 2
Fore
SplineSet
267 430 m 0
 375 430 452 352 452 244 c 0
 452 118 339 -53 182 -110 c 8
 140.251 -125.157 94 -143 73 -143 c 0
 57 -143 48 -135 48 -125 c 0
 48 -111 60 -90 71 -86 c 0
 93 -78 117 -67 158 -44 c 0
 212 -13 266 30.7 273 48 c 0
 276.376 56.3429 243 54 204 61 c 0
 108 78 41 137 41 236 c 0
 41 351 152 430 267 430 c 0
140 208 m 0
 140 140 193 90 260 90 c 0
 318 90 353 158 353 260 c 0
 353 319 324 394 264 394 c 0
 178 394 140 295 140 208 c 0
EndSplineSet
EndChar

StartChar: at
Encoding: 32 64 32
Width: 725
VWidth: 982
Flags: WO
HStem: -115 45<280.858 485.939> 58 39<304.875 394.518 469.5 580.354> 341 35<337.367 441.84> 478 45<273.891 494.718>
VStem: 48 52<101.416 314.517> 193 87<119.666 259.39> 457 48<129 283> 645 52<163.794 331.942>
LayerCount: 2
Fore
SplineSet
490 58 m 0
 449 58 446 100 436 100 c 0
 426 100 383 58 320 58 c 0
 254 58 193 102 193 172 c 0
 193 293 303 376 413 376 c 0
 433 376 466 367 478 363 c 0
 493 358 497 357 501 357 c 0
 511 357 516 376 526 376 c 0
 530 376 554 372 551 368 c 1
 542 344 532 304 529 288 c 2
 508 156 l 2
 507 147 505 138 505 129 c 0
 505 114 509 100 523 100 c 0
 593 100 645 153 645 236 c 0
 645 375 531 478 392 478 c 0
 234 478 100 376 100 207 c 0
 100 48 232 -70 391 -70 c 0
 456 -70 548 -40 598 2 c 0
 604 7 611 12 616 12 c 0
 625 12 630 8 630 -1 c 0
 630 -25 488 -115 380 -115 c 0
 202 -115 48 13 48 197 c 0
 48 411 221 523 412 523 c 0
 561 523 697 400 697 251 c 0
 697 134 597 58 490 58 c 0
391 341 m 0
 334 341 280 289 280 191 c 0
 280 119 318 97 356 97 c 0
 380 97 390 105 410 119 c 0
 422 127 431 137 437 168 c 2
 456 271 l 2
 457 275 457 279 457 283 c 0
 457 320 434 341 391 341 c 0
EndSplineSet
EndChar

StartChar: B
Encoding: 66 66 34
Width: 523
VWidth: 982
Flags: W
HStem: -2 41<20.8339 96.6875 232.968 332.26> 291 44<217.519 320.007> 555 41<24.253 101.1 218.023 327.958>
VStem: 122 95<63.6768 290.308 335.729 535.189> 370 86<398.744 514.549> 387 111<95.0865 244.335>
AnchorPoint: "top_accent" 269 670 basechar 0
AnchorPoint: "below_accent" 280 -80 basechar 0
AnchorPoint: "ogonek" 265 15 basechar 0
AnchorPoint: "cedilla" 281 15 basechar 0
LayerCount: 2
Fore
SplineSet
169 591 m 2xf4
 193 591 250 596 295 596 c 0
 373 596 456 555 456 479 c 0xf8
 456 408 416 370 382 346 c 0
 373 339 372 334 380 331 c 0
 422 316 498 261 498 180 c 0
 498 57 394 -2 261 -2 c 0
 240 -2 185 3 166 3 c 0
 119 3 60 -2 53 -2 c 0
 42 -1 20 5 20 15 c 0
 20 30 53 35 75 45 c 0
 109 60 122 92 122 129 c 2
 122 482 l 2
 122 539 97 540 40 556 c 0
 31 559 24 564 24 573 c 0
 24 585 38 591 59 591 c 2
 169 591 l 2xf4
217 528 m 2
 217 363 l 2
 217 343 229 335 247 335 c 0
 308 335 370 377 370 438 c 0
 370 496 336 555 279 555 c 0
 239 555 217 549 217 528 c 2
217 103 m 2
 217 55 259 39 271 39 c 0
 346 39 387 100 387 168 c 0xf4
 387 241 348 291 247 291 c 0
 232 291 217 285 217 264 c 2
 217 103 l 2
EndSplineSet
Validated: 1
EndChar

StartChar: G
Encoding: 39 71 39
Width: 710
VWidth: 982
Flags: W
HStem: -24 44<305.221 507.214> 220 45<428.767 513.142> 428 21G<604 612.5> 563 45<297.169 495.374>
VStem: 46 112<187.047 382.614> 528 93<40.8568 202.998>
AnchorPoint: "top_accent" 415 670 basechar 0
AnchorPoint: "below_accent" 384 -80 basechar 0
AnchorPoint: "ogonek" 394 15 basechar 0
AnchorPoint: "cedilla" 380 15 basechar 0
LayerCount: 2
Fore
SplineSet
419 608 m 0
 512 608 528 592 595 574 c 0
 606 571 609 552 612 541 c 0
 616 526 624 471 624 443 c 0
 624 434 617 428 608 428 c 0
 600 428 589 441 575 468 c 0
 538 538 463 563 385 563 c 0
 252 563 158 439 158 303 c 0
 158 158 255 20 399 20 c 0
 452 20 528 41 528 58 c 2
 528 179 l 2
 528 191 496 212 474 220 c 0
 444 231 427 234 427 249 c 0
 427 260 438 265 448 265 c 0
 474 265 549 261 583 261 c 0
 616 261 645 265 670 265 c 0
 683 265 690 257 690 245 c 0
 690 239 679 227 666 222 c 0
 652 216 621 193 621 181 c 2
 621 76 l 2
 621 53 648 40 648 31 c 0
 648 8 459 -24 356 -24 c 0
 197 -24 46 109 46 268 c 0
 46 468 217 608 419 608 c 0
EndSplineSet
Validated: 1
EndChar

StartChar: I
Encoding: 41 73 41
Width: 339
VWidth: 982
Flags: W
HStem: -2 47<24.0383 102.943 236.057 315.136> 556 35<24.0204 94.0943 245.545 314.983>
VStem: 122 95<63.6768 535.239>
AnchorPoint: "top_accent" 170 670 basechar 0
AnchorPoint: "below_accent" 170 -80 basechar 0
AnchorPoint: "ogonek" 205 15 basechar 0
AnchorPoint: "cedilla" 183 15 basechar 0
LayerCount: 2
Fore
SplineSet
280 591 m 0
 295 591 315 585 315 573 c 0
 315 564 309 559 300 556 c 0
 243 540 217 539 217 482 c 2
 217 129 l 2
 217 92 230 60 264 45 c 0
 286 35 319 30 319 15 c 0
 319 5 298 -1 287 -2 c 0
 280 -2 214 4 166 4 c 0
 119 4 60 -2 53 -2 c 0
 42 -1 20 5 20 15 c 0
 20 30 53 35 75 45 c 0
 109 60 122 92 122 129 c 2
 122 482 l 2
 122 539 97 540 40 556 c 0
 31 559 24 564 24 573 c 0
 24 585 44 591 59 591 c 0
 98 591 134 586 170 586 c 0
 205 586 246 591 280 591 c 0
EndSplineSet
Validated: 1
EndChar

StartChar: L
Encoding: 44 76 44
Width: 591
VWidth: 982
Flags: W
HStem: -2 47<24.0383 102.943 238.001 456.932> 556 35<24.0204 94.0943 246.184 315.983>
VStem: 122 95<66.7605 535.239> 514 45<118.708 184.129>
AnchorPoint: "top_accent" 169 670 basechar 0
AnchorPoint: "below_accent" 308 -80 basechar 0
AnchorPoint: "ogonek" 458 15 basechar 0
AnchorPoint: "cedilla" 353 15 basechar 0
AnchorPoint: "top_right" 480 546 basechar 0
LayerCount: 2
Fore
SplineSet
217 139 m 2
 217 88 238 45 286 45 c 2
 395 45 l 2
 472 45 485 105 514 166 c 0
 519 177 532 185 541 185 c 0
 551 185 559 166 559 138 c 0
 559 111 534 30 526 17 c 0
 518 2 515 -2 498 -2 c 0
 461 -2 272 3 166 3 c 0
 119 3 60 -2 53 -2 c 0
 42 -1 20 5 20 15 c 0
 20 30 53 35 75 45 c 0
 109 60 122 92 122 129 c 2
 122 482 l 2
 122 539 97 540 40 556 c 0
 31 559 24 564 24 573 c 0
 24 585 38 591 60 591 c 0
 99 591 135 586 171 586 c 0
 206 586 247 591 281 591 c 0
 296 591 316 585 316 573 c 0
 316 564 310 559 301 556 c 0
 244 540 217 539 217 482 c 2
 217 139 l 2
EndSplineSet
Validated: 1
Substitution2: "loclCAT subtable" L.CAT
EndChar

StartChar: M
Encoding: 45 77 45
Width: 813
VWidth: 982
Flags: W
HStem: -2 47<16.6173 95.1082 194.19 265.136 518.038 597.408 730.522 809.136> 549 47<706.152 777.568>
AnchorPoint: "top_accent" 406 670 basechar 0
AnchorPoint: "below_accent" 402 -80 basechar 0
AnchorPoint: "cedilla" 130 15 basechar 0
LayerCount: 2
Fore
SplineSet
711 129 m 2
 713 92 724 60 758 45 c 0
 780 35 813 30 813 15 c 0
 813 5 792 -1 781 -2 c 0
 774 -2 708 4 660 4 c 0
 613 4 554 -2 547 -2 c 0
 536 -1 514 5 514 15 c 0
 514 30 547 35 569 45 c 0
 603 60 618 92 616 129 c 2
 608 322 l 2
 605 373 597 419 588 419 c 0
 579 419 565 420 533 340 c 2
 442 131 l 2
 438 122 396 36 387 36 c 0
 377 36 369 44 348 98 c 2
 249 352 l 2
 231 399 222 416 214 416 c 0
 206 416 201 426 196 346 c 2
 183 133 l 2
 181 106 188 57 214 45 c 0
 236 35 269 30 269 15 c 0
 269 5 248 -1 237 -2 c 0
 230 -2 186 4 138 4 c 0
 91 4 53 -2 46 -2 c 0
 35 -1 13 5 13 15 c 0
 13 30 45 35 68 45 c 0
 102 60 119 100 126 150 c 2
 160 416 l 2
 169 487 153 506 128 529 c 0
 110 546 74 561 74 577 c 0
 74 592 96 591 108 591 c 0
 144 591 173 586 219 586 c 0
 246 586 263 568 282 523 c 2
 392 253 l 2
 395 246 412 236 417 236 c 0
 425 236 436 248 446 270 c 2
 587 563 l 2
 598 586 612 586 638 586 c 0
 664 586 733 596 765 596 c 0
 777 596 781 589 781 579 c 0
 781 569 773 566 733 549 c 0
 702 536 691 516 694 459 c 2
 711 129 l 2
EndSplineSet
Validated: 1048609
EndChar

StartChar: N
Encoding: 78 78 46
Width: 685
VWidth: 982
Flags: W
HStem: -11 21G<576.5 587> -2 47<17.0383 96.8911 185.109 265.136> 556 35<446.02 517.58 626.036 696.983>
VStem: 115 52<63.4753 398.744> 544 55<168.007 535.602>
AnchorPoint: "top_accent" 346 670 basechar 0
AnchorPoint: "below_accent" 378 -80 basechar 0
AnchorPoint: "cedilla" 130 15 basechar 0
LayerCount: 2
Fore
SplineSet
167 129 m 2xb8
 167 91 180 60 214 45 c 0
 236 35 269 30 269 15 c 0
 269 5 248 -1 237 -2 c 0
 230 -2 186 4 138 4 c 0
 91 4 53 -2 46 -2 c 0
 35 -1 13 5 13 15 c 0
 13 30 46 35 68 45 c 0x78
 102 60 115 91 115 129 c 2
 115 390 l 2
 115 438 112 464 101 477 c 2
 64 518 l 2
 38 547 18 565 18 575 c 0
 18 583 24 586 33 586 c 2
 130 586 l 2
 152 586 173 561 183 550 c 2
 448 253 l 2
 515 178 527 168 535 168 c 0
 543 168 544 178 544 238 c 2
 544 482 l 2
 544 540 519 540 462 556 c 0
 453 559 446 564 446 573 c 0
 446 585 466 591 481 591 c 0
 520 591 536 586 572 586 c 0
 607 586 628 591 662 591 c 0
 677 591 697 585 697 573 c 0
 697 564 691 559 682 556 c 0
 625 540 599 540 599 482 c 2
 599 83 l 2
 599 36 602 28 602 1 c 0
 602 -9 592 -11 582 -11 c 0
 571 -11 535 7 497 49 c 2
 203 376 l 2
 187 394 179 400 174 400 c 0
 168 400 167 386 167 332 c 2
 167 129 l 2xb8
EndSplineSet
Validated: 1
EndChar

StartChar: O
Encoding: 47 79 47
Width: 670
VWidth: 982
Flags: W
HStem: -12 46<283.311 440.915> 552 46<258.314 414.707>
VStem: 34 112<206.288 409.475> 535 112<193.054 402.242>
AnchorPoint: "top_accent" 346 670 basechar 0
AnchorPoint: "below_accent" 354 -80 basechar 0
AnchorPoint: "ogonek" 433 15 basechar 0
AnchorPoint: "cedilla" 375 15 basechar 0
LayerCount: 2
Fore
SplineSet
374 598 m 0
 510 598 647 456 647 310 c 0
 647 139 521 -12 350 -12 c 0
 171 -12 34 113 34 295 c 0
 34 484 176 598 374 598 c 0
146 330 m 0
 146 191 225 34 364 34 c 0
 483 34 535 161 535 280 c 0
 535 410 466 552 336 552 c 0
 226 552 146 440 146 330 c 0
EndSplineSet
Validated: 1
EndChar

StartChar: Q
Encoding: 49 81 49
Width: 754
VWidth: 982
Flags: W
HStem: -320 70<951.89 1281.02> 560 45<265.997 428.765>
VStem: 46 112<182.744 393.544> 555 112<190.094 405.055> 1449 70<-161.215 -88.1427>
AnchorPoint: "top_accent" 371 670 basechar 0
LayerCount: 2
Fore
SplineSet
378 605 m 0
 537 605 667 470 667 311 c 0
 667 207 626 121 548 64 c 0
 495 25 480 19 480 3 c 0
 480 -29 614 -106 663 -126 c 0
 856 -206 961 -250 1148 -250 c 0
 1324 -250 1407 -238 1449 -116 c 0
 1455 -98 1471 -83 1487 -83 c 0
 1510 -83 1519 -101 1519 -118 c 0
 1519 -246 1269 -320 1126 -320 c 0
 857 -320 772 -268 598 -195 c 0
 517 -160 456 -120 388 -85 c 0
 333 -58 276 -26 228 1 c 0
 123 62 46 152 46 281 c 0
 46 461 200 605 378 605 c 0
158 325 m 0
 158 181 221 21 365 21 c 0
 411 21 461 55 495 89 c 0
 543 137 555 201 555 276 c 0
 555 421 479 560 343 560 c 0
 229 560 158 439 158 325 c 0
EndSplineSet
Validated: 1
EndChar

StartChar: R
Encoding: 50 82 50
Width: 651
VWidth: 982
Flags: W
HStem: -24 47<599.004 677.076> -2 47<24.0383 102.943 233.057 312.136> 264 36<224.378 310.662> 552 35<24.0204 93.6009> 553 44<217.593 338.577>
VStem: 122 92<63.6768 263.04 316.286 531.239> 390 100<373.462 501.584>
AnchorPoint: "top_accent" 273 670 basechar 0
AnchorPoint: "below_accent" 372 -80 basechar 0
AnchorPoint: "cedilla" 182 15 basechar 0
LayerCount: 2
Fore
SplineSet
224 316 m 8x2e
 232 305 244 300 255 300 c 0
 285 300 320 310 329 320 c 1
 368 353 390 387 390 439 c 0
 390 506 331 553 264 553 c 0
 236 553 214 538 214 519 c 2
 214 360 l 2
 214 334 220 322 224 316 c 8x2e
419 246 m 0
 468 173 531 93 606 39 c 0
 618 30 641 25 663 23 c 0
 674 22 680 14 680 6 c 0
 680 -12 645 -24 610 -24 c 0
 561 -24 511 -7 483 23 c 0xae
 424 85 377 144 325 231 c 0
 313 251 284 264 242 264 c 0
 221 264 214 236 214 214 c 2
 214 129 l 2
 214 92 227 60 261 45 c 0
 283 35 316 30 316 15 c 0
 316 5 295 -1 284 -2 c 0
 277 -2 211 4 163 4 c 0
 120 4 60 -2 53 -2 c 0
 42 -1 20 5 20 15 c 0
 20 30 53 35 75 45 c 0
 109 60 122 92 122 129 c 2
 122 478 l 2
 122 535 97 536 40 552 c 0
 31 555 24 560 24 569 c 0
 24 581 38 586 59 587 c 0x76
 147 594 188 597 277 597 c 0
 378 597 490 555 490 454 c 0
 490 390 458 348 411 314 c 0
 398 304 394 305 394 296 c 0
 394 287 406 265 419 246 c 0
EndSplineSet
Validated: 1
EndChar

StartChar: T
Encoding: 52 84 52
Width: 592
VWidth: 982
Flags: W
HStem: -2 47<168.038 246.943 380.057 459.136> 536 48<92.4905 265.478 361.469 559.784>
VStem: 35 50<463.844 531.629> 266 95<63.6768 536>
AnchorPoint: "top_accent" 315 670 basechar 0
AnchorPoint: "below_accent" 312 -80 basechar 0
AnchorPoint: "cedilla" 332 15 basechar 0
LayerCount: 2
Fore
SplineSet
266 505 m 2
 266 525 260 536 250 536 c 2
 128 536 l 2
 102 536 95 524 85 506 c 8
 74 486 67 458 53 458 c 0
 40 458 35 472 35 481 c 0
 35 504 40 512 40 544 c 0
 40 560 38 579 38 589 c 0
 38 602 45 614 55 614 c 0
 65 614 73 602 91 591 c 1
 123 588 142 584 150 584 c 2
 499 584 l 2
 535 584 551 591 569 601 c 0
 581 608 586 616 598 616 c 0
 610 616 616 606 616 598 c 0
 616 589 612 577 612 555 c 0
 612 531 614 497 614 486 c 0
 614 471 612 463 600 463 c 0
 590 463 575 489 564 508 c 8
 555 523 542 536 528 536 c 2
 373 536 l 2
 363 536 361 515 361 505 c 2
 361 129 l 2
 361 92 374 60 408 45 c 0
 430 35 463 30 463 15 c 0
 463 5 442 -1 431 -2 c 0
 424 -2 358 4 310 4 c 0
 263 4 204 -2 197 -2 c 0
 186 -1 164 5 164 15 c 0
 164 30 197 35 219 45 c 0
 253 60 266 92 266 129 c 2
 266 505 l 2
EndSplineSet
Validated: 1048577
EndChar

StartChar: V
Encoding: 86 86 54
Width: 557
VWidth: 982
Flags: W
HStem: 556 35<0.0203552 52.3352 217.966 272.983 377.023 426.521 533.254 582.977>
AnchorPoint: "cedilla" 299 15 basechar 0
AnchorPoint: "below_accent" 296 -80 basechar 0
AnchorPoint: "top_accent" 308 670 basechar 0
LayerCount: 2
Fore
SplineSet
394 555 m 0
 385 558 377 564 377 573 c 0
 377 585 397 591 412 591 c 0
 427 591 469 586 484 586 c 0
 499 586 533 591 548 591 c 0
 563 591 583 585 583 573 c 0
 583 564 575 559 566 556 c 0
 520 541 502 508 486 463 c 2
 362 121 l 2
 345 75 309 -15 296 -15 c 0
 288 -15 273 13 258 54 c 2
 106 458 l 2
 89 504 79 535 16 556 c 0
 7 559 0 564 0 573 c 0
 0 585 20 591 35 591 c 0
 74 591 78 586 114 586 c 0
 149 586 204 591 238 591 c 0
 253 591 273 585 273 573 c 0
 273 564 267 559 258 556 c 0
 215 542 179 524 195 480 c 2
 293 218 l 2
 309 174 316 169 323 169 c 0
 330 169 341 172 360 229 c 2
 434 453 l 2
 457 522 436 541 394 555 c 0
EndSplineSet
Validated: 33
EndChar

StartChar: X
Encoding: 56 88 56
Width: 612
VWidth: 982
Flags: W
HStem: -2 47<23.8269 115.286 191.268 231.288 312.953 385.678 514.806 592.967> 552 38<59.2283 113.225>
AnchorPoint: "top_accent" 328 670 basechar 0
AnchorPoint: "below_accent" 293 -80 basechar 0
AnchorPoint: "cedilla" 130 15 basechar 0
LayerCount: 2
Fore
SplineSet
256 527 m 0
 256 522 261 502 265 495 c 2
 333 369 l 1
 387 450 l 2
 401 472 419 505 419 521 c 0
 419 533 407 549 389 555 c 0
 380 558 372 564 372 573 c 0
 372 585 392 590 407 590 c 0
 422 590 464 586 479 586 c 0
 494 586 528 590 543 590 c 0
 558 590 578 585 578 573 c 0
 578 564 570 559 561 556 c 0
 501 536 472 507 449 472 c 2
 355 327 l 1
 467 120 l 2
 481 94 507 63 556 45 c 0
 587 34 596 24 596 14 c 0
 596 3 586 -2 567 -2 c 0
 544 -2 508 4 475 4 c 0
 409 4 371 -2 341 -2 c 0
 328 -2 309 4 309 15 c 0
 309 30 341 35 363 45 c 0
 399 62 386 84 373 106 c 2
 300 242 l 1
 203 92 l 2
 192 76 182 48 201 43 c 0
 227 36 233 25 233 15 c 0
 233 4 223 -2 198 -2 c 0
 179 -2 135 4 116 4 c 0
 91 4 68 -2 53 -2 c 0
 34 -2 20 4 20 15 c 0
 20 30 53 35 75 45 c 0
 108 60 135 76 161 110 c 1
 277 285 l 1
 201 426 l 2
 183 460 145 529 79 552 c 0
 70 555 59 564 59 573 c 0
 59 585 79 590 94 590 c 0
 133 590 137 586 173 586 c 0
 208 586 235 590 269 590 c 0
 284 590 304 585 304 573 c 0
 304 564 298 559 289 556 c 0
 260 546 256 534 256 527 c 0
EndSplineSet
Validated: 33
EndChar

StartChar: Y
Encoding: 57 89 57
Width: 431
VWidth: 982
Flags: W
HStem: -2 47<116.038 194.943 328.057 407.136> 556 35<0.0203552 58.4125 201.117 244.983 454.292 518.977>
VStem: 214 95<63.7073 319.519>
AnchorPoint: "top_accent" 262 670 basechar 0
AnchorPoint: "below_accent" 262 -80 basechar 0
AnchorPoint: "cedilla" 259 15 basechar 0
LayerCount: 2
Fore
SplineSet
309 130 m 2
 309 92 322 60 356 45 c 0
 378 35 411 30 411 15 c 0
 411 5 390 -1 379 -2 c 0
 372 -2 306 4 258 4 c 0
 211 4 152 -2 145 -2 c 0
 134 -1 112 5 112 15 c 0
 112 30 145 35 167 45 c 0
 201 60 214 92 214 130 c 2
 214 203 l 2
 214 276 201 297 188 330 c 2
 143 446 l 2
 115 518 53 544 16 556 c 0
 7 559 0 564 0 573 c 0
 0 585 20 591 35 591 c 0
 74 591 78 586 114 586 c 0
 149 586 176 591 210 591 c 0
 225 591 245 585 245 573 c 0
 245 564 239 559 230 556 c 0
 201 546 200 539 200 532 c 0
 200 522 249 429 249 429 c 2
 260 406 271 388 280 388 c 0
 290 388 297 406 322 450 c 2
 359 515 l 2
 366 527 348 549 330 555 c 0
 321 558 313 564 313 573 c 0
 313 585 333 591 348 591 c 0
 363 591 405 586 420 586 c 0
 435 586 469 591 484 591 c 0
 499 591 519 585 519 573 c 0
 519 564 511 559 502 556 c 0
 442 536 439 542 383 456 c 2
 326 368 l 2
 304 335 309 312 309 298 c 2
 309 130 l 2
EndSplineSet
Validated: 1048609
EndChar

StartChar: bracketleft
Encoding: 91 91 59
Width: 268
VWidth: 982
Flags: W
HStem: -199 43<98.7599 266.629> 541 43<97.6936 267.055>
VStem: 47 48<-154.121 538.806>
LayerCount: 2
Fore
SplineSet
85 584 m 2
 250 584 l 2
 260 584 268 580 268 570 c 0
 268 560 262 541 242 541 c 2
 134 541 l 2
 104 541 95 528 95 498 c 2
 95 -104 l 2
 95 -134 101 -156 130 -156 c 2
 242 -156 l 2
 258 -156 268 -159 268 -171 c 0
 268 -183 254 -199 242 -199 c 2
 78 -199 l 2
 55 -199 47 -198 47 -174 c 2
 47 550 l 2
 47 584 53 584 85 584 c 2
EndSplineSet
Validated: 1
EndChar

StartChar: bracketright
Encoding: 93 93 61
Width: 268
VWidth: 982
Flags: W
HStem: -199 43<0.945068 170.306> 541 43<1.37109 169.24>
VStem: 173 48<-153.806 539.121>
LayerCount: 2
Fore
SplineSet
183 -199 m 2
 18 -199 l 2
 8 -199 0 -195 0 -185 c 0
 0 -175 6 -156 26 -156 c 2
 134 -156 l 2
 164 -156 173 -143 173 -113 c 2
 173 489 l 2
 173 519 167 541 138 541 c 2
 26 541 l 2
 10 541 0 544 0 556 c 0
 0 568 14 584 26 584 c 2
 190 584 l 2
 213 584 221 583 221 559 c 2
 221 -165 l 2
 221 -199 215 -199 183 -199 c 2
EndSplineSet
Validated: 1
EndChar

StartChar: underscore
Encoding: 63 95 63
Width: 590
VWidth: 982
Flags: W
HStem: -117 65<10.3058 580.307>
LayerCount: 2
Fore
SplineSet
69 -117 m 2
 45 -117 0 -116 0 -101 c 0
 0 -72 26 -52 83 -52 c 2
 521 -52 l 2
 549 -52 590 -50 590 -70 c 0
 590 -99 563 -117 506 -117 c 2
 69 -117 l 2
EndSplineSet
Validated: 33
EndChar

StartChar: a
Encoding: 65 97 65
Width: 409
VWidth: 982
Flags: W
HStem: -8 67<96.5 195.491 290.5 373.267> 370 60<115.49 210.23>
VStem: 22 89<71.649 157.214> 37 74<302.283 366.04> 232 84<68.3994 198.363 238.467 347.6>
AnchorPoint: "below_accent" 185 -80 basechar 0
AnchorPoint: "ogonek" 331 5 basechar 0
AnchorPoint: "top_accent" 185 596 basechar 0
LayerCount: 2
Fore
SplineSet
186 430 m 0xd8
 271 430 316 381 316 328 c 2
 316 91 l 2
 316 76 336 63 352 63 c 0
 366 63 381 76 388 76 c 0
 394 76 397 65 397 54 c 0
 397 18 347 -8 307 -8 c 0
 274 -8 251 15 238 33 c 0
 231 43 230 42 223 35 c 0
 200 12 160 -8 121 -8 c 0
 72 -8 22 38 22 88 c 0xe8
 22 138 46 169 76 182 c 2
 207 237 l 2
 225 245 230 250 230 260 c 2
 230 309 l 2
 230 344 192 370 157 370 c 0
 136 370 111 362 111 341 c 0
 111 316 110 308 101 302 c 0
 95 298 55 281 45 281 c 0
 39 281 37 307 37 315 c 0
 37 338 54 368 75 383 c 0
 110 407 149 430 186 430 c 0xd8
111 131 m 0
 111 82 134 59 170 59 c 0
 198 59 232 73 232 97 c 2
 232 191 l 2
 232 202 220 202 209 198 c 2
 161 179 l 2
 126 168 111 148 111 131 c 0
EndSplineSet
Validated: 1048577
EndChar

StartChar: b
Encoding: 66 98 66
Width: 441
VWidth: 982
Flags: W
HStem: -8 48<167.548 288.562> 378 52<152.553 264.717> 661 20G<97 108>
VStem: 32 83<96.5378 358.618 399.568 603.256> 336 92<128.628 294.215>
AnchorPoint: "top_accent" 74 785 basechar 0
AnchorPoint: "below_accent" 207 -80 basechar 0
LayerCount: 2
Fore
SplineSet
32 566 m 2
 32 585 16 604 -8 613 c 0
 -19 617 -31 625 -31 636 c 0
 -31 647 -16 655 -2 657 c 0
 38 664 92 681 102 681 c 0
 114 681 115 673 115 653 c 2
 115 404 l 2
 115 390 121 388 136 399 c 0
 153 411 196 430 251 430 c 0
 353 430 428 324 428 224 c 0
 428 99 325 -8 199 -8 c 0
 128 -8 40 22 40 33 c 1
 33 47 32 64 32 82 c 2
 32 566 l 2
115 332 m 2
 115 185 l 2
 115 114 153 40 230 40 c 0
 303 40 336 111 336 192 c 0
 336 283 289 378 198 378 c 0
 140 378 115 339 115 332 c 2
EndSplineSet
Validated: 1
EndChar

StartChar: c
Encoding: 67 99 67
Width: 389
VWidth: 982
Flags: W
HStem: -8 68<175.302 303.97> 383 47<163.542 252.061>
VStem: 20 92<135.917 298.035>
AnchorPoint: "below_accent" 185 -80 basechar 0
AnchorPoint: "cedilla" 248 5 basechar 0
AnchorPoint: "top_accent" 223 596 basechar 0
LayerCount: 2
Fore
SplineSet
200 -8 m 0
 93 -8 20 89 20 195 c 0
 20 316 107 430 222 430 c 0
 292 430 323 410 339 397 c 0
 358 381 372 364 372 351 c 0
 372 327 353 312 330 312 c 0
 312 312 287 326 265 348 c 8
 248 365 235 383 214 383 c 0
 154 383 112 308 112 242 c 0
 112 154 151 60 236 60 c 0
 282 60 331 83 341 83 c 0
 351 83 356 79 356 69 c 0
 356 40 298 -8 200 -8 c 0
EndSplineSet
Validated: 1048577
EndChar

StartChar: d
Encoding: 68 100 68
Width: 486
VWidth: 982
Flags: W
HStem: -8 64<172.346 274.047 399.157 449.388> 21 41<401.875 481.727> 387 43<153.507 267.415> 661 20G<382 393>
VStem: 17 92<130.726 289.771> 316 83<74.4875 337.688 410.991 602.442>
AnchorPoint: "top_accent" 326 785 basechar 0
AnchorPoint: "below_accent" 226 -80 basechar 0
AnchorPoint: "top_right" 440 590 basechar 0
AnchorPoint: "cedilla" 366 5 basechar 0
LayerCount: 2
Fore
SplineSet
387 681 m 0xbc
 399 681 399 673 399 654 c 2
 399 84 l 2
 399 61 405 56 415 56 c 0xbc
 428 56 461 62 469 62 c 0
 474 62 482 53 482 46 c 0
 482 33 477 25 469 21 c 0x7c
 451 12 352 -12 337 -12 c 0
 329 -12 324 -3 323 2 c 0
 320 12 317 25 314 40 c 0
 312 50 309 51 302 41 c 0
 279 8 240 -8 200 -8 c 0
 98 -8 17 80 17 182 c 0
 17 307 99 430 225 430 c 0
 257 430 289 418 303 404 c 0
 312 396 314 401 316 420 c 2
 316 567 l 2
 316 584 299 604 275 613 c 0
 264 617 252 625 252 636 c 0
 252 647 267 655 281 657 c 0
 321 664 377 681 387 681 c 0xbc
109 233 m 0
 109 143 152 56 238 56 c 0
 277 56 316 78 316 118 c 2
 316 271 l 2
 316 334 266 387 204 387 c 0
 134 387 109 303 109 233 c 0
EndSplineSet
Validated: 1
EndChar

StartChar: f
Encoding: 70 102 70
Width: 310
VWidth: 982
Flags: W
HStem: -2 46<16.002 85.6687 191.886 266.998> 355 55<44.2508 96.9348 180.026 287.437> 559 21G<389 413.5> 634 56<227.359 344.58>
VStem: 97 83<55.5628 351.063 410 544.318>
AnchorPoint: "top_accent" 267 785 basechar 0
AnchorPoint: "below_accent" 138 -80 basechar 0
LayerCount: 2
Fore
SplineSet
322 690 m 0
 373 690 438 642 438 605 c 0
 438 581 426 559 401 559 c 0
 377 559 364 586 349 607 c 0
 338 623 317 634 288 634 c 0
 220 634 180 584 180 525 c 2
 180 420 l 2
 180 405 189 410 202 410 c 2
 267 412 l 2
 283 412 290 399 290 389 c 0
 290 379 281 355 267 355 c 2
 196 355 l 2
 184 355 180 346 180 332 c 2
 180 108 l 2
 180 83 188 55 224 44 c 0
 251 36 268 28 268 18 c 0
 268 8 259 -2 233 -2 c 0
 211 -2 154 4 138 4 c 0
 118 4 72 -2 50 -2 c 0
 24 -2 15 8 15 18 c 0
 15 28 32 36 59 44 c 0
 86 52 97 83 97 108 c 2
 97 338 l 2
 97 346 92 352 55 352 c 0
 46 352 23 356 23 366 c 0
 23 380 56 396 84 406 c 0
 95 410 97 424 97 435 c 0
 97 573 184 690 322 690 c 0
EndSplineSet
Validated: 1
Substitution2: "loclDEU subtable" f.DEU
EndChar

StartChar: g
Encoding: 71 103 71
Width: 471
VWidth: 982
Flags: W
HStem: -272 56<110.295 265.299> -37 79<119.131 302.184> 121 43<145.239 235.805> 332 66<346.85 453.771> 382 48<134.295 234.206>
VStem: -10 83<-181.274 -102.871> 23 92<21.5 81 208.689 349.15> 269 82<211.549 336.923> 330 77<-146.625 -31.5>
AnchorPoint: "top_accent" 200 596 basechar 0
LayerCount: 2
Fore
SplineSet
193 430 m 0xea
 246 430 268 421 283 413 c 0
 299 405 314 396 324 396 c 2
 428 398 l 2
 448 398 456 377 456 363 c 0
 456 345 446 332 420 332 c 0
 407 332 361 337 352 337 c 0
 345 337 341 332 343 326 c 0
 346 318 351 289 351 282 c 0
 351 209 273 121 183 121 c 0
 172 121 167 124 162 124 c 0
 161 124 150 123 145 119 c 0
 130 106 115 89 115 73 c 0xf3
 115 59 139 44 186 42 c 2
 298 38 l 2
 342 36 407 -4 407 -59 c 0
 407 -189 283 -272 153 -272 c 0
 61 -272 -10 -238 -10 -160 c 0xf480
 -10 -112 38 -66 86 -36 c 0
 91 -33 90 -28 80 -23 c 0
 47 -8 23 5 23 38 c 0
 23 47 29 54 37 61 c 0
 52 74 88 104 104 128 c 0
 107 132 111 137 104 141 c 0
 59 167 23 241 23 273 c 0
 23 363 103 430 193 430 c 0xea
109 289 m 0
 109 233 137 164 193 164 c 0
 247 164 269 230 269 286 c 0
 269 337 228 382 178 382 c 8xe9
 133 382 109 334 109 289 c 0
73 -131 m 0xe480
 73 -193 139 -216 198 -216 c 0
 271 -216 330 -179 330 -116 c 0
 330 -51 278 -37 177 -37 c 0
 151 -37 132 -42 110 -62 c 0
 85 -85 73 -109 73 -131 c 0xe480
EndSplineSet
Validated: 1
EndChar

StartChar: h
Encoding: 104 104 72
Width: 543
VWidth: 982
Flags: W
HStem: -2 46<20.7626 85.6687 185.388 240.334 304.763 360.205 460.654 522.438> 378 52<226.223 328.325> 661 20G<163 174>
VStem: 97 83<53.0419 342.363 392.255 603.762> 366 83<53.4106 337.284>
AnchorPoint: "top_accent" 140 785 basechar 0
AnchorPoint: "below_accent" 275 -80 basechar 0
AnchorPoint: "cedilla" 141 5 basechar 0
LayerCount: 2
Fore
SplineSet
449 110 m 1
 450 84 460 52 487 44 c 0
 514 36 523 28 523 18 c 0
 523 8 522 -2 496 -2 c 0
 474 -2 424 4 408 4 c 0
 388 4 356 -2 334 -2 c 0
 308 -2 304 8 304 18 c 0
 304 28 316 36 343 44 c 0
 361 49 366 83 366 108 c 2
 366 261 l 2
 366 320 331 378 279 378 c 0
 221 378 181 344 181 268 c 2
 180 108 l 2
 180 83 184 50 203 44 c 0
 230 36 241 28 241 18 c 0
 241 8 238 -2 212 -2 c 0
 190 -2 155 4 139 4 c 0
 119 4 72 -2 50 -2 c 0
 24 -2 20 8 20 18 c 0
 20 28 32 36 59 44 c 0
 86 52 97 83 97 108 c 2
 97 567 l 2
 97 584 82 604 58 613 c 0
 47 617 35 625 35 636 c 0
 35 647 50 655 64 657 c 0
 104 664 158 681 168 681 c 0
 180 681 180 673 180 654 c 2
 180 406 l 2
 180 379 192 384 200 391 c 0
 233 418 272 430 324 430 c 0
 394 430 449 364 449 291 c 2
 449 110 l 1
EndSplineSet
Validated: 1
EndChar

StartChar: k
Encoding: 75 107 75
Width: 529
VWidth: 982
Flags: W
HStem: -2 46<16.002 85.6687 191.331 250.602 454.518 537.065> 192 30<182.966 223.135> 380 37<299.105 339.992 423.853 485.682> 661 20G<163 174>
VStem: 97 83<53.0419 191.989 222.007 603.762>
AnchorPoint: "top_accent" 140 785 basechar 0
AnchorPoint: "below_accent" 279 -80 basechar 0
LayerCount: 2
Fore
SplineSet
315 82 m 2
 252 148 l 2
 229 172 211 192 201 192 c 0
 186 192 180 177 180 155 c 2
 180 108 l 2
 180 83 191 52 218 44 c 0
 245 36 251 28 251 18 c 0
 251 8 243 -2 217 -2 c 0
 195 -2 155 4 139 4 c 0
 119 4 72 -2 50 -2 c 0
 24 -2 15 8 15 18 c 0
 15 28 32 36 59 44 c 0
 86 52 97 83 97 108 c 2
 97 567 l 2
 97 584 82 604 58 613 c 0
 47 617 35 625 35 636 c 0
 35 647 50 655 64 657 c 0
 104 664 158 681 168 681 c 0
 180 681 180 674 180 654 c 2
 180 245 l 2
 180 232 182 222 202 222 c 0
 219 222 254 246 267 264 c 2
 324 332 l 2
 335 345 340 355 340 362 c 0
 340 372 329 379 323 380 c 0
 308 383 299 387 299 397 c 0
 299 407 308 417 324 417 c 0
 339 417 388 417 403 417 c 0
 418 417 448 423 463 423 c 0
 479 423 487 413 487 403 c 0
 487 393 468 385 453 380 c 0
 442 376 404 351 379 323 c 2
 312 249 l 2
 305 242 295 230 295 220 c 0
 295 205 334 173 374 133 c 0
 414 93 466 53 495 44 c 0
 522 36 538 28 538 18 c 0
 538 8 530 -2 504 -2 c 0
 482 -2 432 4 416 4 c 0
 396 4 361 -2 339 -2 c 0
 313 -2 304 8 304 18 c 0
 304 28 341 40 341 45 c 0
 341 50 330 66 315 82 c 2
EndSplineSet
Validated: 1
EndChar

StartChar: l
Encoding: 76 108 76
Width: 276
VWidth: 982
Flags: W
HStem: -2 46<16.002 85.6687 191.331 260.065> 661 20G<163 174>
VStem: 97 83<53.0419 603.762>
AnchorPoint: "top_accent" 140 785 basechar 0
AnchorPoint: "below_accent" 141 -80 basechar 0
AnchorPoint: "top_right" 232 590 basechar 0
LayerCount: 2
Fore
SplineSet
97 567 m 2
 97 584 82 604 58 613 c 0
 47 617 35 625 35 636 c 0
 35 647 50 655 64 657 c 0
 104 664 158 681 168 681 c 0
 180 681 180 673 180 654 c 2
 180 108 l 2
 180 83 191 52 218 44 c 0
 245 36 261 28 261 18 c 0
 261 8 253 -2 227 -2 c 0
 205 -2 155 4 139 4 c 0
 119 4 72 -2 50 -2 c 0
 24 -2 15 8 15 18 c 0
 15 28 32 36 59 44 c 0
 86 52 97 83 97 108 c 2
 97 567 l 2
EndSplineSet
Validated: 1048577
Substitution2: "loclCAT subtable" l.CAT
EndChar

StartChar: m
Encoding: 77 109 77
Width: 812
VWidth: 982
Flags: W
HStem: -2 46<20.7626 85.6687 185.388 240.334 304.763 360.205 454.388 509.333 573.763 629.205 729.331 791.438> 378 52<226.223 328.743 494.865 597.325>
VStem: 97 83<53.0419 340.366> 366 83<44.6405 337.439> 635 83<53.4106 337.284>
CounterMasks: 1 38
AnchorPoint: "below_accent" 410 -80 basechar 0
AnchorPoint: "top_accent" 411 596 basechar 0
LayerCount: 2
Fore
SplineSet
434 364 m 0
 439 364 450 375 469 391 c 0
 502 418 541 430 593 430 c 0
 663 430 718 364 718 291 c 2
 718 110 l 2
 718 84 729 52 756 44 c 0
 783 36 792 28 792 18 c 0
 792 8 791 -2 765 -2 c 0
 743 -2 693 4 677 4 c 0
 657 4 625 -2 603 -2 c 0
 577 -2 573 8 573 18 c 0
 573 28 585 36 612 44 c 0
 630 49 635 83 635 108 c 2
 635 261 l 2
 635 320 600 378 548 378 c 0
 489 378 449 339 449 268 c 2
 449 108 l 2
 449 83 453 50 472 44 c 0
 499 36 510 28 510 18 c 0
 510 8 507 -2 481 -2 c 0
 459 -2 424 4 408 4 c 0
 389 4 356 -2 334 -2 c 0
 308 -2 304 8 304 18 c 0
 304 28 316 36 343 44 c 0
 361 49 366 83 366 108 c 2
 366 261 l 2
 366 320 331 378 279 378 c 0
 221 378 181 344 181 268 c 2
 180 108 l 2
 180 83 184 50 203 44 c 0
 230 36 241 28 241 18 c 0
 241 8 238 -2 212 -2 c 0
 190 -2 155 4 139 4 c 0
 119 4 72 -2 50 -2 c 0
 24 -2 20 8 20 18 c 0
 20 28 32 36 59 44 c 0
 86 52 97 83 97 108 c 2
 97 302 l 2
 97 319 80 344 56 353 c 0
 45 357 35 363 35 374 c 0
 35 385 51 393 64 399 c 0
 75 405 158 438 168 438 c 0
 180 438 180 429 180 410 c 2
 180 385 l 2
 180 370 192 384 200 391 c 0
 233 418 272 430 324 430 c 0
 368 430 406 403 427 369 c 0
 430 365 432 364 434 364 c 0
EndSplineSet
Validated: 1
EndChar

StartChar: n
Encoding: 78 110 78
Width: 543
VWidth: 982
Flags: W
HStem: -2 46<20.7626 85.6687 185.388 240.334 304.763 360.205 460.331 522.438> 378 52<226.223 328.325>
VStem: 97 83<53.0419 340.366> 366 83<53.4106 337.284>
AnchorPoint: "top_left" 30 596 basechar 0
AnchorPoint: "below_accent" 272 -80 basechar 0
AnchorPoint: "top_accent" 282 596 basechar 0
LayerCount: 2
Fore
SplineSet
449 110 m 2
 449 84 460 52 487 44 c 0
 514 36 523 28 523 18 c 0
 523 8 522 -2 496 -2 c 0
 474 -2 424 4 408 4 c 0
 388 4 356 -2 334 -2 c 0
 308 -2 304 8 304 18 c 0
 304 28 316 36 343 44 c 0
 361 49 366 83 366 108 c 2
 366 261 l 2
 366 320 331 378 279 378 c 0
 221 378 181 344 181 268 c 2
 180 108 l 2
 180 83 184 50 203 44 c 0
 230 36 241 28 241 18 c 0
 241 8 238 -2 212 -2 c 0
 190 -2 155 4 139 4 c 0
 119 4 72 -2 50 -2 c 0
 24 -2 20 8 20 18 c 0
 20 28 32 36 59 44 c 0
 86 52 97 83 97 108 c 2
 97 302 l 2
 97 319 80 344 56 353 c 0
 45 357 35 363 35 374 c 0
 35 385 51 393 64 399 c 0
 76 405 158 438 168 438 c 0
 180 438 180 429 180 410 c 2
 180 385 l 2
 180 370 192 384 200 391 c 0
 233 418 272 430 324 430 c 0
 394 430 449 364 449 291 c 2
 449 110 l 2
EndSplineSet
Validated: 1
EndChar

StartChar: o
Encoding: 79 111 79
Width: 487
VWidth: 982
Flags: W
HStem: -8 47<200.734 315.537> 388 42<174.865 289.854>
VStem: 22 100<137.953 313.192> 365 99<118.648 292.752>
AnchorPoint: "below_accent" 245 -80 basechar 0
AnchorPoint: "ogonek" 292 5 basechar 0
AnchorPoint: "top_accent" 242 596 basechar 0
LayerCount: 2
Fore
SplineSet
239 430 m 0
 363 430 464 337 464 213 c 0
 464 85 362 -8 234 -8 c 0
 109 -8 22 103 22 228 c 0
 22 344 134 430 239 430 c 0
122 237 m 0
 122 144 180 39 260 39 c 0
 330 39 365 116 365 186 c 0
 365 280 313 388 232 388 c 0
 160 388 122 309 122 237 c 0
EndSplineSet
Validated: 1048577
EndChar

StartChar: p
Encoding: 80 112 80
Width: 445
VWidth: 982
Flags: W
HStem: -273 46<161.75 258.065> -260 46<4.00195 61.6411> -6 51<165.062 279.5> 378 52<190.056 285.598>
VStem: 65 83<-210.6 5.99634 63.158 341.382> 333 92<146.928 322.944>
AnchorPoint: "top_accent" 255 596 basechar 0
LayerCount: 2
Fore
SplineSet
65 -161 m 2x7c
 65 302 l 2
 65 319 48 344 24 353 c 0
 13 357 3 363 3 374 c 0
 3 385 19 393 32 399 c 0
 43 405 126 438 136 438 c 0
 148 438 148 429 148 410 c 2
 148 392 l 2
 149 387 154 382 162 390 c 0
 178 406 230 430 275 430 c 0
 358 430 425 341 425 257 c 0
 425 121 330 -6 197 -6 c 0
 177 -6 162 6 158 6 c 0
 149 6 148 1 148 -8 c 2
 148 -169 l 2
 148 -204 162 -212 216 -227 c 0
 243 -235 259 -243 259 -253 c 0
 259 -263 251 -273 225 -273 c 0xbc
 191 -273 131 -260 38 -260 c 0
 12 -260 3 -250 3 -240 c 0
 3 -230 20 -222 47 -214 c 0
 60 -210 65 -186 65 -161 c 2x7c
148 294 m 2
 148 107 l 2
 148 70 183 45 220 45 c 0
 298 45 333 129 333 211 c 0
 333 294 310 378 223 378 c 0
 178 378 148 338 148 294 c 2
EndSplineSet
Validated: 1
EndChar

StartChar: q
Encoding: 81 113 81
Width: 460
VWidth: 982
Flags: W
HStem: -272 46<248.002 321.736> -258 46<428.637 486.14> -8 45<197.902 317.257> 387 43<159.422 283.215> 397 20G<403 414>
VStem: 22 92<130.89 301.441> 339 83<-209.81 13.9177 51.2877 334.607>
AnchorPoint: "top_accent" 237 596 basechar 0
LayerCount: 2
Fore
SplineSet
325 18 m 8xa6
 283 -5 250 -8 204 -8 c 0
 99 -8 22 94 22 199 c 0
 22 319 108 430 229 430 c 0xb6
 291 430 315 422 353 400 c 0
 362 395 363 395 370 399 c 0
 381 406 398 417 408 417 c 0
 420 417 422 403 422 384 c 2
 422 -162 l 2
 422 -187 429 -207 446 -212 c 0
 473 -220 487 -228 487 -238 c 0
 487 -248 481 -258 455 -258 c 0x6e
 373 -258 305 -272 282 -272 c 0
 256 -272 247 -262 247 -252 c 0
 247 -242 264 -234 291 -226 c 0
 318 -218 339 -187 339 -162 c 2
 339 10 l 2
 339 27 330 21 325 18 c 8xa6
114 230 m 0
 114 133 170 37 271 37 c 0
 297 37 339 56 339 82 c 2
 339 266 l 2
 339 335 283 387 210 387 c 0
 140 387 114 303 114 230 c 0
EndSplineSet
Validated: 1
EndChar

StartChar: r
Encoding: 82 114 82
Width: 346
VWidth: 982
Flags: W
HStem: -2 46<20.7626 85.6687 197.857 269.09> 350 80<220.724 305.757>
VStem: 97 83<61.1738 337.805>
AnchorPoint: "below_accent" 142 -80 basechar 0
AnchorPoint: "top_accent" 189 596 basechar 0
LayerCount: 2
Fore
SplineSet
139 4 m 0
 120 4 72 -2 50 -2 c 0
 24 -2 20 8 20 18 c 0
 20 28 32 36 59 44 c 0
 86 52 97 83 97 108 c 2
 97 302 l 2
 97 319 80 344 56 353 c 0
 45 357 35 363 35 374 c 0
 35 385 51 393 64 399 c 0
 75 405 158 438 168 438 c 0
 180 438 180 429 180 410 c 2
 180 385 l 2
 180 370 195 385 200 391 c 0
 216 408 250 430 280 430 c 0
 321 430 337 411 337 388 c 0
 337 373 323 347 307 331 c 0
 304 328 296 322 291 322 c 0
 276 322 254 350 234 350 c 0
 211 350 182 329 182 303 c 2
 180 108 l 2
 180 83 202 52 229 44 c 0
 256 36 270 28 270 18 c 0
 270 8 262 -2 236 -2 c 0
 214 -2 155 4 139 4 c 0
EndSplineSet
Validated: 1
EndChar

StartChar: s
Encoding: 83 115 83
Width: 301
VWidth: 982
Flags: W
HStem: -8 45<88.028 200.465> 384 46<112.634 202.612>
VStem: 35 72<300.9 373.971> 214 66<55.6462 157>
AnchorPoint: "below_accent" 146 -80 basechar 0
AnchorPoint: "cedilla" 171 5 basechar 0
AnchorPoint: "top_accent" 166 596 basechar 0
LayerCount: 2
Fore
SplineSet
163 430 m 0
 194 430 216 419 247 406 c 24
 254 403 255 400 258 390 c 0
 261 379 263 350 263 341 c 0
 263 329 263 319 251 319 c 0
 241 319 234 327 221 344 c 0
 212 356 184 384 153 384 c 0
 116 384 107 359 107 341 c 0
 107 320 118 308 133 297 c 2
 232 222 l 2
 270 193 280 176 280 138 c 0
 280 44 217 -8 129 -8 c 0
 101 -8 73 -4 63 0 c 0
 48 6 43 7 38 20 c 0
 33 33 21 68 21 83 c 0
 21 100 22 115 32 115 c 0
 42 115 62 106 76 75 c 0
 89 48 120 37 153 37 c 0
 181 37 214 61 214 87 c 0
 214 130 177 150 167 157 c 2
 119 191 l 2
 80 219 35 270 35 305 c 8
 35 375 93 430 163 430 c 0
EndSplineSet
Validated: 1048577
EndChar

StartChar: t
Encoding: 84 116 84
Width: 325
VWidth: 982
Flags: W
HStem: -8 68<174.072 257.049> 358 59<161.026 296.625>
VStem: 78 83<70.1548 354.699>
AnchorPoint: "below_accent" 174 -80 basechar 0
AnchorPoint: "top_right" 260 580 basechar 0
AnchorPoint: "cedilla" 209 5 basechar 0
AnchorPoint: "top_accent" 155 596 basechar 0
LayerCount: 2
Fore
SplineSet
186 -8 m 0
 127 -8 78 21 78 106 c 2
 78 341 l 2
 78 350 84 355 47 355 c 0
 38 355 15 359 15 369 c 0
 15 383 57 416 82 437 c 0
 96 449 124 485 137 485 c 0
 149 485 161 477 161 460 c 2
 161 432 l 18
 161 422 170 417 183 417 c 2
 276 417 l 2
 292 417 300 404 300 394 c 0
 300 384 290 358 276 358 c 2
 177 358 l 2
 165 358 161 349 161 335 c 2
 161 152 l 2
 161 82 178 60 213 60 c 0
 250 60 275 78 285 78 c 0
 295 78 300 74 300 64 c 0
 300 41 246 -8 186 -8 c 0
EndSplineSet
Validated: 33
EndChar

StartChar: u
Encoding: 85 117 85
Width: 474
VWidth: 982
Flags: W
HStem: -12 21G<328 339.5> -4 62<132.051 256.119> 370 44<241.382 300.927> 410 20G<124 135 377 388>
VStem: 58 83<82.5002 363.626> 311 83<86.8377 359.609>
AnchorPoint: "below_accent" 227 -80 basechar 0
AnchorPoint: "ogonek" 377 5 basechar 0
AnchorPoint: "top_accent" 217 596 basechar 0
LayerCount: 2
Fore
SplineSet
311 324 m 2x5c
 311 341 292 366 264 370 c 0
 252 372 241 378 241 389 c 0
 241 400 256 412 270 414 c 0x6c
 306 419 372 430 382 430 c 0
 394 430 394 422 394 403 c 2
 394 84 l 2
 394 61 400 56 410 56 c 0
 423 56 444 62 452 62 c 0
 457 62 465 53 465 46 c 0
 465 33 455 25 447 21 c 0
 429 12 347 -12 332 -12 c 0x9c
 324 -12 319 -3 318 2 c 0
 315 12 315 26 312 40 c 0
 310 51 302 49 292 41 c 0
 246 6 215 -4 157 -4 c 0
 99 -4 58 60 58 118 c 2
 58 316 l 2
 58 333 55 357 31 366 c 0
 20 370 10 378 10 389 c 0
 10 400 23 408 37 410 c 0
 77 417 119 430 129 430 c 0
 141 430 141 422 141 403 c 2
 141 151 l 2
 141 103 166 58 211 58 c 16
 266 58 311 91 311 135 c 2
 311 324 l 2x5c
EndSplineSet
Validated: 1048577
EndChar

StartChar: v
Encoding: 86 118 86
Width: 419
VWidth: 982
Flags: W
HStem: 380 43<3.20581 56.1256 147.768 187.86 278.15 322.992 372.751 429.783>
AnchorPoint: "below_accent" 211 -80 basechar 0
AnchorPoint: "top_accent" 231 596 basechar 0
LayerCount: 2
Fore
SplineSet
306 380 m 0
 291 383 278 393 278 403 c 0
 278 413 287 423 303 423 c 0
 318 423 343 417 358 417 c 0
 373 417 391 423 406 423 c 0
 422 423 430 413 430 403 c 0
 430 393 411 385 396 380 c 0
 385 376 367 358 353 323 c 2
 274 123 l 2
 257 81 229 -14 211 -14 c 0
 201 -14 192 9 186 26 c 2
 75 317 l 2
 65 343 51 375 36 380 c 0
 21 385 3 393 3 403 c 0
 3 413 11 423 27 423 c 0
 42 423 76 417 91 417 c 0
 106 417 148 423 163 423 c 0
 179 423 188 413 188 403 c 0
 188 393 176 385 154 378 c 0
 149 377 145 364 149 354 c 2
 220 171 l 2
 224 161 233 145 239 145 c 0
 246 145 253 161 257 171 c 2
 313 321 l 2
 321 341 323 355 323 362 c 0
 323 372 312 379 306 380 c 0
EndSplineSet
Validated: 1
EndChar

StartChar: x
Encoding: 88 120 88
Width: 454
VWidth: 982
Flags: W
HStem: -2 43<12.217 85.0174 139.008 183.85 255.14 292.138 403.456 457.929> 380 43<29.1497 83.7216 186.525 222.86 271.105 311.992 370.495 432.783>
AnchorPoint: "below_accent" 219 -80 basechar 0
AnchorPoint: "top_accent" 242 596 basechar 0
LayerCount: 2
Fore
SplineSet
437 41 m 0
 452 36 458 28 458 18 c 0
 458 8 450 -2 434 -2 c 0
 419 -2 372 4 357 4 c 0
 342 4 295 -2 280 -2 c 0
 264 -2 255 8 255 18 c 0
 255 28 267 36 289 43 c 0
 294 44 297 69 278 95 c 2
 220 175 l 1
 169 108 l 2
 165 102 139 66 139 59 c 0
 139 49 150 42 156 41 c 0
 171 38 184 28 184 18 c 0
 184 8 175 -2 159 -2 c 0
 144 -2 105 4 90 4 c 0
 75 4 51 -2 36 -2 c 0
 20 -2 12 8 12 18 c 0
 12 28 31 36 46 41 c 0
 57 45 88 58 109 86 c 2
 198 204 l 1
 100 339 l 2
 93 348 72 375 57 380 c 0
 42 385 29 393 29 403 c 0
 29 413 37 423 53 423 c 0
 68 423 106 417 121 417 c 0
 136 417 183 423 198 423 c 0
 214 423 223 413 223 403 c 0
 223 393 211 385 189 378 c 0
 184 377 177 367 202 332 c 2
 247 269 l 1
 297 335 l 2
 306 347 312 355 312 362 c 0
 312 372 301 379 295 380 c 0
 280 383 271 393 271 403 c 0
 271 413 284 423 300 423 c 0
 315 423 346 417 361 417 c 0
 376 417 394 423 409 423 c 0
 425 423 433 413 433 403 c 0
 433 393 414 385 399 380 c 0
 388 376 339 333 328 319 c 2
 269 240 l 1
 333 151 l 2
 392 70 409 50 437 41 c 0
EndSplineSet
Validated: 33
EndChar

StartChar: z
Encoding: 122 122 90
Width: 432
VWidth: 982
Flags: W
HStem: -2 49<168.005 332.471> 368 49<94.3312 264.998>
AnchorPoint: "below_accent" 205 -80 basechar 0
AnchorPoint: "top_accent" 239 596 basechar 0
LayerCount: 2
Fore
SplineSet
84 422 m 0
 96 422 113 417 133 417 c 2
 322 417 l 2
 363 417 386 421 399 421 c 0
 413 421 411 407 411 399 c 0
 411 387 381 351 364 328 c 2
 182 87 l 2
 177 80 168 68 168 62 c 0
 168 53 175 47 199 47 c 2
 281 47 l 2
 309 47 320 51 352 90 c 0
 374 117 391 146 401 146 c 0
 410 146 415 138 415 121 c 0
 415 71 378 -2 364 -2 c 0
 327 -2 282 4 225 4 c 0
 170 4 120 -2 51 -2 c 0
 34 -2 19 11 19 23 c 0
 19 37 30 50 48 73 c 2
 209 273 l 2
 237 308 265 345 265 355 c 0
 265 364 262 371 241 368 c 2
 143 368 l 2
 115 368 101 358 81 330 c 0
 70 314 56 303 49 303 c 0
 39 303 34 308 34 325 c 0
 34 360 66 422 84 422 c 0
EndSplineSet
Validated: 1
EndChar

StartChar: braceleft
Encoding: 123 123 91
Width: 373
Flags: W
HStem: -154 27<248.781 337.897> 688 27<248.781 337.897>
VStem: 118 77<-85.2919 149.197 411.803 646.292> 131 77<-20.282 210.046 350.809 581.282>
LayerCount: 2
Fore
SplineSet
102 279 m 0xd0
 135 270 208 213 208 147 c 0xd0
 208 89 195 42 195 -26 c 0
 195 -99 248 -127 312 -127 c 0
 323 -127 338 -128 338 -139 c 0
 338 -148 329 -154 320 -154 c 0
 226 -154 118 -115 118 -21 c 0xe0
 118 49 131 95 131 157 c 0
 131 215 90 253 36 273 c 0
 31 275 25 276 25 282 c 0
 25 288 31 286 36 288 c 0
 90 308 131 346 131 404 c 0xd0
 131 466 118 512 118 582 c 0
 118 676 226 715 320 715 c 0
 329 715 338 709 338 700 c 0
 338 689 323 688 312 688 c 0
 248 688 195 660 195 587 c 0xe0
 195 519 208 472 208 414 c 0
 208 348 142 300 100 283 c 0
 96 281 99 280 102 279 c 0xd0
EndSplineSet
Validated: 1
EndChar

StartChar: bar
Encoding: 124 124 92
Width: 157
VWidth: 982
Flags: W
VStem: 55 47<-215.115 605.902>
LayerCount: 2
Fore
SplineSet
55 574 m 2
 55 594 75 610 92 610 c 0
 101 610 102 603 102 574 c 2
 102 -188 l 2
 102 -205 83 -218 67 -218 c 0
 57 -218 55 -210 55 -190 c 2
 55 574 l 2
EndSplineSet
Validated: 1
EndChar

StartChar: brokenbar
Encoding: 99 166 263
Width: 157
VWidth: 982
Flags: W
VStem: 55 47<-215.115 146.902 243.885 605.902>
LayerCount: 2
Fore
SplineSet
55 115 m 2
 55 135 75 151 92 151 c 0
 101 151 102 144 102 115 c 2
 102 -188 l 2
 102 -205 83 -218 67 -218 c 0
 57 -218 55 -210 55 -190 c 2
 55 115 l 2
55 574 m 2
 55 594 75 610 92 610 c 0
 101 610 102 603 102 574 c 2
 102 271 l 2
 102 254 83 241 67 241 c 0
 57 241 55 249 55 269 c 2
 55 574 l 2
EndSplineSet
Validated: 1
EndChar

StartChar: degree
Encoding: 176 176 103
Width: 357
VWidth: 982
Flags: W
HStem: 347 52<126.314 236.797> 567 53<125.555 241.348>
VStem: 41 57<428.509 539.721> 268 55<431.495 540.803>
LayerCount: 2
Fore
SplineSet
178 620 m 0
 251 620 323 575 323 502 c 0
 323 419 261 347 178 347 c 0
 100 347 41 413 41 491 c 0
 41 564 105 620 178 620 c 0
98 483 m 0
 98 436 136 399 183 399 c 0
 232 399 268 443 268 492 c 0
 268 538 224 567 178 567 c 0
 133 567 98 528 98 483 c 0
EndSplineSet
Validated: 1
EndChar

StartChar: periodcentered
Encoding: 112 183 750
Width: 204
VWidth: 982
Flags: W
HStem: 310 124<55.2003 148.8>
VStem: 40 124<325.2 418.8>
LayerCount: 2
Fore
SplineSet
102 434 m 0
 136 434 164 406 164 372 c 0
 164 338 136 310 102 310 c 0
 68 310 40 338 40 372 c 0
 40 406 68 434 102 434 c 0
EndSplineSet
Validated: 1
EndChar

StartChar: questiondown
Encoding: 115 191 110
Width: 266
VWidth: 982
Flags: W
HStem: 288 117<124.337 216.003>
VStem: 42 33<-66.502 67.5> 110 120<302.34 390.725>
LayerCount: 2
Fore
SplineSet
42 42 m 0
 42 93 54 109 72 116 c 0
 98 126 115 130 146 142 c 0
 154 145 165 202 184 202 c 0
 199 202 210 146 210 119 c 0
 210 98 206 68 193 63 c 0
 168 53 148 49 127 40 c 0
 92 25 75 4 75 -30 c 0
 75 -51 93 -75 109 -80 c 0
 131 -86 154 -92 183 -103 c 0
 205 -111 219 -123 219 -150 c 0
 219 -193 213 -222 201 -222 c 0
 80 -222 42 -115 42 42 c 0
110 340 m 0
 110 376 133 405 171 405 c 0
 203 405 230 381 230 348 c 0
 230 314 203 288 167 288 c 0
 136 288 110 308 110 340 c 0
EndSplineSet
Validated: 1
EndChar

StartChar: AE
Encoding: 198 198 794
Width: 887
VWidth: 982
Flags: W
HStem: -2 47<23.8269 108.359 177.807 230.516 357.038 435.943 571.001 787.333> 256 49<327.703 454.952 550.587 698.343> 545 46<550 757.496> 556 35<289.105 373.254>
VStem: 455 95<66.8442 255.965 305.029 510.047> 832 41<97.7344 155.746>
AnchorPoint: "cedilla" 130 15 basechar 0
AnchorPoint: "top_accent" 506 670 basechar 0
AnchorPoint: "below_accent" 503 -80 basechar 0
LayerCount: 2
Fore
SplineSet
313 556 m 0xdc
 298 558 289 566 289 575 c 0
 289 587 303 591 324 591 c 2xdc
 664 591 l 2
 706 591 765 596 783 596 c 0
 799 596 807 591 809 582 c 0
 813 566 818 511 818 500 c 0
 818 488 814 474 802 474 c 0
 790 474 775 492 766 512 c 0
 758 529 733 545 685 545 c 2
 581 545 l 2xec
 554 545 550 537 550 524 c 2
 550 336 l 2
 550 312 559 305 573 305 c 2
 644 305 l 2
 676 305 687 316 705 333 c 0
 716 343 725 358 736 358 c 0
 745 358 747 350 747 338 c 0
 747 330 743 295 743 280 c 0
 743 265 744 234 744 223 c 0
 744 213 741 197 731 197 c 0
 718 197 705 225 699 235 c 0
 692 246 685 256 664 256 c 2
 574 256 l 2
 555 256 550 251 550 232 c 2
 550 140 l 2
 550 88 571 45 619 45 c 2
 713 45 l 2
 790 45 803 77 832 138 c 0
 837 149 850 157 859 157 c 0
 869 157 873 147 873 132 c 0
 873 104 843 30 835 17 c 0
 827 2 825 -2 808 -2 c 0
 771 -2 605 3 499 3 c 0
 452 3 393 -2 386 -2 c 0
 375 -1 353 5 353 15 c 0
 353 30 386 35 408 45 c 0
 442 60 455 92 455 128 c 1
 455 232 l 2
 455 244 451 256 443 256 c 2
 302 256 l 2
 292 256 280 245 275 235 c 2
 187 85 l 2
 177 69 167 51 196 43 c 0
 222 36 233 25 233 15 c 0
 233 4 223 -2 198 -2 c 0
 179 -2 135 4 116 4 c 0
 91 4 68 -2 53 -2 c 0
 34 -2 20 4 20 15 c 0
 20 30 53 35 75 45 c 0
 108 60 113 69 135 106 c 2
 372 503 l 2
 394 539 368 550 313 556 c 0xdc
326 324 m 2
 318 309 319 305 337 305 c 2
 443 305 l 2
 454 305 455 315 455 328 c 2
 455 498 l 2
 455 533 443 527 435 513 c 2
 326 324 l 2
EndSplineSet
Validated: 33
EndChar

StartChar: Thorn
Encoding: 146 222 141
Width: 535
VWidth: 982
Flags: W
HStem: -2 47<24.0383 102.943 233.057 312.136> 428 44<217.419 334.162> 556 35<24.0204 94.0943 252.005 314.983>
VStem: 122 92<63.6768 422.252 468.1 527.394> 390 100<244.538 374.957>
AnchorPoint: "top_accent" 346 670 basechar 0
AnchorPoint: "below_accent" 308 -80 basechar 0
AnchorPoint: "ogonek" 394 15 basechar 0
AnchorPoint: "cedilla" 130 15 basechar 0
LayerCount: 2
Fore
SplineSet
228 467 m 0
 242 469 258 472 277 472 c 0
 378 472 490 428 490 327 c 0
 490 245 438 196 368 158 c 0
 331 138 315 138 304 138 c 0
 293 138 286 143 286 155 c 0
 286 165 301 167 329 191 c 0
 368 224 390 260 390 312 c 0
 390 379 331 428 264 428 c 0
 236 428 214 413 214 394 c 2
 214 129 l 2
 214 92 227 60 261 45 c 0
 283 35 316 30 316 15 c 0
 316 5 295 -1 284 -2 c 0
 277 -2 211 4 163 4 c 0
 120 4 60 -2 53 -2 c 0
 42 -1 20 5 20 15 c 0
 20 30 53 35 75 45 c 0
 109 60 122 92 122 129 c 2
 122 482 l 2
 122 539 97 540 40 556 c 0
 31 559 24 564 24 573 c 0
 24 585 44 591 59 591 c 0
 98 591 134 586 170 586 c 0
 205 586 246 591 280 591 c 0
 295 591 315 585 315 573 c 0
 315 564 309 559 300 556 c 0
 243 540 217 525 217 482 c 0
 217 464 222 466 228 467 c 0
EndSplineSet
Validated: 1
EndChar

StartChar: germandbls
Encoding: 223 223 142
Width: 552
VWidth: 982
Flags: W
HStem: -8 45<339.028 444.561> -2 46<16.002 85.6687 184.791 235.376> 636 54<252.256 374.815>
VStem: 97 83<53.0816 362 424.715 521.184> 280 72<311.5 395.529> 405 79<525.447 607.822> 465 66<65.3148 170>
LayerCount: 2
Fore
SplineSet
299 636 m 0xbc
 201 636 180 513 180 425 c 2
 180 108 l 2
 180 72 186 49 203 44 c 0
 226 37 236 28 236 18 c 0
 236 8 228 -2 202 -2 c 0
 180 -2 155 4 139 4 c 0
 119 4 72 -2 50 -2 c 0
 24 -2 15 8 15 18 c 0
 15 28 32 36 59 44 c 0
 86 52 97 83 97 108 c 2
 98 362 l 1
 50 362 l 2
 40 363 23 365 23 375 c 0
 23 389 56 418 84 428 c 0
 95 432 97 438 97 449 c 0
 97 508 186 690 337 690 c 0
 402 690 484 652 484 590 c 0x7c
 484 554 470 534 450 510 c 2
 376 421 l 2
 365 408 352 393 352 376 c 0
 352 358 365 344 378 332 c 2
 483 240 l 2
 518 210 531 189 531 151 c 0
 531 57 468 -8 380 -8 c 0
 352 -8 324 -4 314 0 c 0
 299 6 294 7 289 20 c 0
 284 33 272 68 272 83 c 0
 272 100 273 115 283 115 c 0
 293 115 313 106 327 75 c 0
 340 48 371 37 404 37 c 0
 432 37 465 74 465 100 c 0xba
 465 132 427 162 418 170 c 2
 354 226 l 2
 318 258 280 293 280 330 c 0
 280 374 305 403 337 438 c 2
 380 492 l 2
 400 517 405 537 405 568 c 0
 405 612 345 636 299 636 c 0xbc
EndSplineSet
Validated: 1
EndChar

StartChar: ae
Encoding: 154 230 149
Width: 569
VWidth: 982
Flags: W
HStem: -8 67<96.5 201.445 355.018 469.825> 370 60<115.49 211.546> 384 46<356.617 451.557>
VStem: 22 89<71.5438 153.521> 37 74<302.283 366.04> 232 84<103.609 187.275 268.821 339.946> 462 87<306.363 372.331>
AnchorPoint: "below_accent" 260 -80 basechar 0
AnchorPoint: "top_accent" 276 596 basechar 0
LayerCount: 2
Fore
SplineSet
111 124 m 0x96
 111 86 132 59 170 59 c 0
 199 59 232 73 232 97 c 2
 232 180 l 2
 232 191 220 190 209 187 c 2
 161 172 l 2
 123 160 111 148 111 124 c 0x96
317 280 m 0
 317 273 319 265 330 269 c 2
 434 304 l 2
 452 309 462 321 462 335 c 0
 462 365 433 384 403 384 c 0xa6
 367 384 317 333 317 280 c 0
549 326 m 0
 549 299 527 287 502 279 c 2
 339 227 l 2
 321 221 316 218 316 208 c 0
 316 141 334 60 411 60 c 0
 461 60 505 83 515 83 c 0
 525 83 530 79 530 69 c 0
 530 40 454 -8 374 -8 c 0
 327 -8 298 13 269 47 c 0
 261 56 255 57 246 47 c 0
 212 11 160 -8 121 -8 c 0
 72 -8 22 38 22 88 c 0xb6
 22 138 49 167 79 179 c 1
 207 226 l 2
 225 233 230 239 230 249 c 2
 230 309 l 2
 230 344 192 370 157 370 c 0
 136 370 111 362 111 341 c 0
 111 316 110 308 101 302 c 0
 95 298 55 281 45 281 c 0
 39 281 37 307 37 315 c 0
 37 338 54 368 75 383 c 0
 110 407 149 430 186 430 c 0xce
 238 430 275 412 296 385 c 1
 300 388 304 391 308 394 c 0
 342 417 372 430 417 430 c 0
 484 430 549 390 549 326 c 0
EndSplineSet
Validated: 1
EndChar

StartChar: divide
Encoding: 247 247 166
Width: 469
VWidth: 982
Flags: W
HStem: -5 121<191.313 281> 167 66<46.7198 417.294> 284 121<191.313 281>
VStem: 173 123<10.4372 98.0663 299.437 387.066>
CounterMasks: 1 e0
LayerCount: 2
Fore
SplineSet
95 167 m 2
 74 167 42 172 42 197 c 0
 42 215 63 233 95 233 c 2
 380 233 l 2
 405 233 422 220 422 205 c 0
 422 190 409 168 379 168 c 2
 95 167 l 2
242 116 m 0
 274 116 296 86 296 54 c 0
 296 19 264 -5 229 -5 c 0
 198 -5 173 20 173 51 c 0
 173 88 205 116 242 116 c 0
242 405 m 0
 274 405 296 375 296 343 c 0
 296 308 264 284 229 284 c 0
 198 284 173 309 173 340 c 0
 173 377 205 405 242 405 c 0
EndSplineSet
Validated: 1
EndChar

StartChar: Dcroat
Encoding: 196 272 755
Width: 716
VWidth: 982
Flags: W
HStem: -7 45<270.396 451.286> -2 47<24.0383 102.499> 302 48<4.55328 396.66> 553 45<221.372 408.372> 556 35<24.0204 94.0943>
VStem: 122 95<87.3454 534.853> 559 112<187.798 400.644>
LayerCount: 2
Fore
SplineSet
36 302 m 2x26
 22 302 0 303 0 314 c 0
 0 332 21 350 53 350 c 2
 359 350 l 2
 384 350 401 348 401 340 c 0
 401 325 388 302 358 302 c 2
 36 302 l 2x26
EndSplineSet
Refer: 36 68 N 1 0 0 1 0 0 2
Validated: 32773
EndChar

StartChar: dcroat
Encoding: 197 273 262
Width: 445
VWidth: 982
Flags: W
HStem: -8 64<178.346 280.047 405.157 455.388> 21 41<407.875 487.727> 387 43<159.507 273.415> 512 96<559.303 606.76> 512 48<107.017 322 405 557.46> 661 20G<388 399>
VStem: 23 92<130.726 289.771> 322 83<74.4875 337.688 410.991 512 560 602.442>
AnchorPoint: "cedilla" 372 5 basechar 0
AnchorPoint: "top_right" 446 590 basechar 0
AnchorPoint: "below_accent" 232 -80 basechar 0
AnchorPoint: "top_accent" 332 785 basechar 0
LayerCount: 2
Fore
SplineSet
115 233 m 0xa7
 115 143 158 56 244 56 c 0
 283 56 322 78 322 118 c 2
 322 271 l 2
 322 334 272 387 210 387 c 0
 140 387 115 303 115 233 c 0xa7
393 681 m 0
 405 681 405 673 405 654 c 2
 405 560 l 1
 531 560 l 2xaf
 544 560 552 569 556 578 c 0
 561 591 568 608 578 608 c 0
 600 608 616 583 616 536 c 0
 616 522 607 512 596 512 c 2x37
 405 512 l 1
 405 84 l 2
 405 61 411 56 421 56 c 0xaf
 434 56 467 62 475 62 c 0
 480 62 488 53 488 46 c 0
 488 33 483 25 475 21 c 0x67
 457 12 358 -12 343 -12 c 0
 335 -12 330 -3 329 2 c 0
 326 12 323 25 320 40 c 0
 318 50 315 51 308 41 c 0
 285 8 246 -8 206 -8 c 0
 104 -8 23 80 23 182 c 0
 23 307 105 430 231 430 c 0
 263 430 295 418 309 404 c 0
 318 396 320 401 322 420 c 1
 322 512 l 1
 129 512 l 2
 113 512 105 518 105 526 c 0
 105 541 114 560 138 560 c 2
 322 560 l 1xaf
 322 567 l 2
 322 584 305 604 281 613 c 0
 270 617 258 625 258 636 c 0
 258 647 273 655 287 657 c 0
 327 664 383 681 393 681 c 0
EndSplineSet
Validated: 1
EndChar

StartChar: Hbar
Encoding: 218 294 756
Width: 725
VWidth: 982
Flags: W
HStem: -2 47<24.0383 102.943 228.789 305.136 420.038 496.211 622.057 701.136> 275 48<217 508> 413 48<4.55328 720.66> 556 35<24.0204 94.0943 239.155 304.983 420.02 486.484 631.545 700.983>
VStem: 122 95<63.6768 275 323 535.239> 508 95<63.6768 274.999 323 535.239>
LayerCount: 2
Fore
SplineSet
36 413 m 2
 22 413 0 414 0 425 c 0
 0 443 21 461 53 461 c 2
 683 461 l 2
 708 461 725 459 725 451 c 0
 725 436 712 413 682 413 c 2
 36 413 l 2
EndSplineSet
Refer: 40 72 N 1 0 0 1 0 0 2
Validated: 32773
EndChar

StartChar: dotlessi
Encoding: 305 305 175
Width: 276
VWidth: 982
Flags: W
HStem: -2 46<16.002 85.6687 191.331 260.065>
VStem: 97 83<53.0419 341.382>
AnchorPoint: "top_accent" 133 596 basechar 0
LayerCount: 2
Fore
SplineSet
97 302 m 2
 97 319 80 344 56 353 c 0
 45 357 35 363 35 374 c 0
 35 385 51 393 64 399 c 0
 75 405 158 438 168 438 c 0
 180 438 180 429 180 409 c 2
 180 108 l 2
 180 83 191 52 218 44 c 0
 245 36 261 28 261 18 c 0
 261 8 253 -2 227 -2 c 0
 205 -2 155 4 139 4 c 0
 119 4 72 -2 50 -2 c 0
 24 -2 15 8 15 18 c 0
 15 28 32 36 59 44 c 0
 86 52 97 83 97 108 c 2
 97 302 l 2
EndSplineSet
Validated: 1
EndChar

StartChar: Lslash
Encoding: 245 321 758
Width: 591
VWidth: 982
Flags: W
HStem: -2 47<24.0383 102.943 238.001 456.932> 556 35<24.0204 94.0943 246.184 315.983>
VStem: 122 95<66.7605 253 347 535.239> 514 45<118.708 184.129>
LayerCount: 2
Fore
SplineSet
43 216 m 2
 30 210 7 214 7 225 c 0
 7 243 31 261 60 274 c 2
 122 303 l 1
 122 482 l 2
 122 539 97 540 40 556 c 0
 31 559 24 564 24 573 c 0
 24 585 38 591 60 591 c 0
 99 591 135 586 171 586 c 0
 206 586 247 591 281 591 c 0
 296 591 316 585 316 573 c 0
 316 564 310 559 301 556 c 0
 244 540 217 539 217 482 c 2
 217 347 l 1
 346 407 l 2
 369 418 388 405 388 397 c 0
 388 382 372 370 345 357 c 2
 217 297 l 1
 217 139 l 2
 217 88 238 45 286 45 c 2
 395 45 l 2
 472 45 485 105 514 166 c 0
 519 177 532 185 541 185 c 0
 551 185 559 166 559 138 c 0
 559 111 534 30 526 17 c 0
 518 2 515 -2 498 -2 c 0
 461 -2 272 3 166 3 c 0
 119 3 60 -2 53 -2 c 0
 42 -1 20 5 20 15 c 0
 20 30 53 35 75 45 c 0
 109 60 122 92 122 129 c 2
 122 253 l 1
 43 216 l 2
EndSplineSet
Validated: 33
EndChar

StartChar: OE
Encoding: 338 338 214
Width: 876
VWidth: 982
Flags: W
HStem: -12 46<283.311 432.025> -2 47<586.001 783.333> 276 49<565.587 694.343> 545 46<565 753.496> 552 46<258.314 447.076>
VStem: 34 112<206.288 409.475> 470 95<71.402 275.966 325.021 521.72> 828 41<97.7344 155.746>
LayerCount: 2
Fore
SplineSet
350 -12 m 0xa7
 171 -12 34 113 34 295 c 0
 34 484 176 598 374 598 c 0xaf
 408 598 426 591 460 591 c 2
 660 591 l 2
 702 591 761 596 779 596 c 0
 795 596 803 591 805 582 c 0
 809 566 814 511 814 500 c 0
 814 488 810 474 798 474 c 0
 786 474 771 492 762 512 c 0
 754 529 729 545 681 545 c 2
 596 545 l 2
 569 545 565 537 565 524 c 2
 565 356 l 2
 565 332 574 325 588 325 c 2
 640 325 l 2
 672 325 683 336 701 353 c 0
 712 363 721 378 732 378 c 0
 741 378 743 370 743 358 c 0
 743 350 739 315 739 300 c 0
 739 285 740 254 740 243 c 0
 740 233 737 217 727 217 c 0
 714 217 701 245 695 255 c 0
 688 266 681 276 660 276 c 2
 589 276 l 2
 570 276 565 271 565 252 c 2
 565 140 l 2
 565 88 586 45 634 45 c 2
 709 45 l 2
 786 45 799 77 828 138 c 0
 833 149 846 157 855 157 c 0
 865 157 869 147 869 132 c 0
 869 104 839 30 831 17 c 0
 823 2 821 -2 804 -2 c 0
 767 -2 669 3 563 3 c 0
 516 3 459 -2 452 -2 c 0x77
 441 -1 390 -12 350 -12 c 0xa7
336 552 m 0
 226 552 146 440 146 330 c 0
 146 191 225 34 364 34 c 0
 439 34 470 92 470 129 c 2
 470 482 l 2
 470 535 384 552 336 552 c 0
EndSplineSet
Validated: 33
EndChar

StartChar: oe
Encoding: 263 339 215
Width: 738
VWidth: 982
Flags: W
HStem: -8 68<511.473 642.074> -8 47<200.734 316.321> 258 46<470.109 624.698> 388 42<174.865 289.64 510.297 609.844>
VStem: 22 100<137.953 313.192> 365 84<131.436 257.219> 626 87<305.087 372.712>
AnchorPoint: "top_accent" 406 596 basechar 0
LayerCount: 2
Fore
SplineSet
122 237 m 0x7e
 122 144 180 39 260 39 c 0
 330 39 365 116 365 186 c 0
 365 280 313 388 232 388 c 0
 160 388 122 309 122 237 c 0x7e
239 430 m 0
 304 430 363 404 404 362 c 0
 407 359 410 356 413 352 c 1
 452 400 512 430 581 430 c 0
 649 430 713 377 713 326 c 0
 713 299 692 258 666 258 c 2
 472 258 l 2
 458 258 456 256 453 248 c 0
 449 237 449 235 449 218 c 0
 449 142 496 60 575 60 c 0
 625 60 669 83 679 83 c 0
 689 83 694 79 694 69 c 0
 694 40 636 -8 538 -8 c 0xbe
 481 -8 436 21 407 65 c 1
 406 64 405 62 404 61 c 0
 362 18 302 -8 234 -8 c 0
 109 -8 22 103 22 228 c 0
 22 344 134 430 239 430 c 0
470 315 m 0
 470 308 471 304 483 304 c 2
 598 304 l 2
 617 304 626 321 626 335 c 0
 626 364 596 384 567 384 c 0
 507 384 470 335 470 315 c 0
EndSplineSet
Validated: 1
EndChar

StartChar: Tbar
Encoding: 358 358 764
Width: 592
VWidth: 982
Flags: W
HStem: -2 47<168.038 246.943 380.057 459.136> 304 48<125.553 509.66> 536 48<92.4905 265.478 361.469 559.784>
VStem: 35 50<463.844 531.629> 266 95<63.6768 536>
LayerCount: 2
Fore
SplineSet
157 304 m 2
 143 304 121 305 121 316 c 0
 121 334 142 352 174 352 c 2
 472 352 l 2
 497 352 514 350 514 342 c 0
 514 327 501 304 471 304 c 2
 157 304 l 2
EndSplineSet
Refer: 52 84 N 1 0 0 1 0 0 2
Validated: 32773
EndChar

StartChar: uni01E4
Encoding: 339 484 766
Width: 710
VWidth: 982
Flags: W
HStem: -24 44<305.221 507.214> 107 48<401.553 705.66> 220 45<428.767 513.142> 428 21<604 612.5> 563 45<297.169 495.374>
VStem: 46 112<187.047 382.614> 528 93<40.8568 202.998>
LayerCount: 2
Fore
SplineSet
433 107 m 2
 419 107 397 108 397 119 c 0
 397 137 418 155 450 155 c 2
 668 155 l 2
 693 155 710 153 710 145 c 0
 710 130 697 107 667 107 c 2
 433 107 l 2
EndSplineSet
Refer: 39 71 N 1 0 0 1 0 0 2
Validated: 32773
EndChar

StartChar: acutecomb
Encoding: 769 769 266
Width: 0
Flags: W
HStem: 490 193
VStem: 14 157
AnchorPoint: "top_accent" 54 596 mark 0
LayerCount: 2
Fore
SplineSet
53 512 m 0
 45 503 31 490 23 490 c 0
 14 490 14 494 14 503 c 0
 14 518 71 632 90 665 c 0
 96 675 107 683 117 683 c 0
 142 683 171 676 171 660 c 0
 171 646 84 545 53 512 c 0
EndSplineSet
Validated: 1
EndChar

StartChar: uni0305
Encoding: 422 773 270
Width: 0
Flags: W
HStem: 562 56<4.25402 395.583>
AnchorPoint: "top_accent" 201 596 mark 0
LayerCount: 2
Fore
SplineSet
24 618 m 2
 387 618 l 2
 393 618 400 612 400 606 c 0
 400 584 388 562 369 562 c 2
 14 562 l 2
 7 562 0 568 0 574 c 0
 0 583 6 618 24 618 c 2
EndSplineSet
Validated: 1
EndChar

StartChar: uni0307
Encoding: 424 775 252
Width: 0
VWidth: 982
Flags: W
HStem: 535 110<41.8467 128.153>
VStem: 30 110<546.104 633.537>
AnchorPoint: "top_accent" 85 596 mark 0
LayerCount: 2
Fore
SplineSet
85 645 m 0
 115 645 140 621 140 591 c 0
 140 560 116 535 85 535 c 0
 54 535 30 560 30 591 c 0
 30 621 55 645 85 645 c 0
EndSplineSet
Validated: 1
EndChar

StartChar: uni0312
Encoding: 432 786 686
Width: 0
VWidth: 982
Flags: W
HStem: 490 71<87.4072 144.388> 670 20G<101 134.5>
VStem: 15 66<567.329 635.212>
AnchorPoint: "top_accent" 93 596 mark 0
LayerCount: 2
Fore
SplineSet
102 490 m 0
 57 490 15 524 15 570 c 0
 15 632 73 690 129 690 c 0
 140 690 145 687 145 677 c 0
 145 665 81 644 81 612 c 0
 81 583 93 568 117 561 c 0
 135 555 149 541 149 521 c 0
 149 499 125 490 102 490 c 0
EndSplineSet
Validated: 1
EndChar

StartChar: uni0314
Encoding: 434 788 685
Width: 0
VWidth: 982
Flags: W
HStem: 619 71<87.4072 144.388>
VStem: 15 66<540.01 612.671>
AnchorPoint: "top_accent" 93 596 mark 0
LayerCount: 2
Fore
SplineSet
102 690 m 0
 125 690 149 681 149 659 c 0
 149 639 135 625 117 619 c 0
 93 612 81 597 81 568 c 0
 81 536 136 515 136 503 c 0
 136 493 131 490 120 490 c 0
 64 490 15 548 15 610 c 0
 15 656 57 690 102 690 c 0
EndSplineSet
Validated: 1
EndChar

StartChar: uni0327
Encoding: 807 807 458
Width: 0
VWidth: 982
Flags: W
HStem: -269 45<48.3744 127.962>
VStem: 47 67<-112 -53.3946> 129 66<-223.577 -163.665>
AnchorPoint: "cedilla" 142 4 mark 0
LayerCount: 2
Fore
SplineSet
172 5 m 1
 132 -23 114 -51 114 -62 c 0
 114 -82 195 -126 195 -175 c 0
 195 -230 119 -269 64 -269 c 0
 40 -269 30 -253 30 -227 c 0
 30 -212 42 -195 53 -195 c 0
 59 -195 90 -224 111 -224 c 0
 128 -224 129 -215 129 -200 c 0
 129 -163 47 -125 47 -99 c 0
 47 -69 69 -50 132 5 c 1
 172 5 l 1
EndSplineSet
Validated: 1
EndChar

StartChar: uni0328
Encoding: 443 808 457
Width: 0
VWidth: 982
Flags: W
HStem: -270 78<55.4375 149.277>
VStem: 5 62<-184.504 -82.5589>
AnchorPoint: "ogonek" 126 5 mark 0
LayerCount: 2
Fore
SplineSet
67 -127 m 0
 67 -158 79 -192 110 -192 c 0
 137 -192 160 -181 176 -159 c 0
 180 -153 185 -146 190 -146 c 0
 199 -146 202 -153 202 -164 c 0
 202 -224 138 -270 77 -270 c 0
 34 -270 5 -221 5 -170 c 0
 5 -88 54 -30 116 8 c 1
 156 8 l 1
 94 -40 67 -68 67 -127 c 0
EndSplineSet
Validated: 1
EndChar

StartChar: quotesinglbase
Encoding: 681 8218 189
Width: 235
VWidth: 982
Flags: W
HStem: -174 289<53 119>
VStem: 119 77<-69.9325 35>
LayerCount: 2
Fore
SplineSet
82 115 m 0
 144 115 196 65 196 5 c 0
 196 -61 119 -174 60 -174 c 0
 51 -174 46 -169 46 -161 c 0
 46 -144 119 -99 119 -50 c 0
 119 -13 91 -2 65 13 c 0
 43 25 26 40 26 63 c 0
 26 94 53 115 82 115 c 0
EndSplineSet
Validated: 1
EndChar

StartChar: Euro
Encoding: 8364 8364 194
Width: 692
VWidth: 982
Flags: W
HStem: -16 50<348.779 531.338> 210 59<4.71983 85 214 447.294> 321 59<30.7198 88 204 473.294> 430 21G<618.5 631.5> 563 45<323.559 529.347>
VStem: 85 112<269 321> 101 103<380 429.705> 586 58<442.059 520.756>
LayerCount: 2
Fore
SplineSet
437 608 m 0xfb
 513 608 591 570 614 568 c 0
 637 566 644 513 644 458 c 0
 644 441 637 430 626 430 c 0
 611 430 599 451 586 493 c 0
 572 537 488 563 417 563 c 0
 308 563 227 487 204 380 c 1xfb
 436 380 l 2
 461 380 478 374 478 359 c 0
 478 344 465 322 435 322 c 2
 197 321 l 1
 197 320 197 318 197 317 c 0
 197 301 198 285 200 269 c 1
 410 269 l 2
 435 269 452 263 452 248 c 0
 452 233 439 211 409 211 c 2
 214 210 l 1
 248 108 331 34 451 34 c 0
 552 34 569 98 622 173 c 0
 626 179 632 181 640 181 c 0
 648 181 656 171 656 153 c 0
 656 145 625 77 616 58 c 0
 600 25 595 18 570 9 c 0
 530 -5 472 -16 416 -16 c 0
 269 -16 127 70 93 210 c 1
 53 210 l 2
 32 210 0 208 0 233 c 0
 0 251 21 269 53 269 c 2
 85 269 l 1
 85 271 85 273 85 275 c 0xfd
 85 291 86 306 88 321 c 1
 79 321 l 2
 58 321 26 319 26 344 c 0
 26 362 47 380 79 380 c 2
 101 380 l 1
 145 519 277 608 437 608 c 0xfb
EndSplineSet
Validated: 33
EndChar

StartChar: uni211F
Encoding: 689 8479 248
Width: 635
VWidth: 982
Flags: W
HStem: -269 21G<189 200> -17 65<475.505 580.516> -2 46<16.002 85.6687 193.365 260.065> 209 48<186.608 241.562> 404 50<18.0996 80.5074 186.08 280.711>
VStem: 94 91<50.7346 209 258.797 393.018> 304 95<290.789 382.435> 518 92<221.5 317.166>
LayerCount: 2
Fore
SplineSet
248 -217 m 2x9f
 225 -248 208 -269 192 -269 c 0
 186 -269 175 -260 175 -256 c 0
 175 -248 194 -223 227 -179 c 2
 504 195 l 2
 510 203 518 218 518 225 c 0
 518 231 506 256 506 283 c 0
 506 303 554 364 571 364 c 0
 584 364 610 317 610 294 c 0
 610 271 590 245 561 206 c 2
 248 -217 l 2x9f
385 18 m 2
 232 199 l 2
 226 206 219 209 216 209 c 2
 200 209 l 2
 188 209 185 200 185 186 c 2
 185 108 l 2
 185 83 191 52 218 44 c 0
 245 36 261 28 261 18 c 0
 261 8 253 -2 227 -2 c 0
 205 -2 155 4 139 4 c 0
 119 4 72 -2 50 -2 c 0
 24 -2 15 8 15 18 c 0
 15 28 32 36 59 44 c 0xbf
 86 52 97 83 97 108 c 2
 94 340 l 2
 94 375 69 403 48 410 c 0
 33 415 15 423 15 433 c 0
 15 443 23 453 39 453 c 0
 54 453 118 450 133 450 c 0
 148 450 227 454 252 454 c 0
 330 454 399 420 399 349 c 0
 399 300 360 268 327 248 c 0
 318 243 323 239 330 230 c 2
 430 105 l 2
 455 74 511 48 537 48 c 0
 582 48 592 55 592 33 c 0
 592 -17 523 -17 478 -17 c 0xdf
 445 -17 406 -6 385 18 c 2
185 375 m 2
 185 291 l 2
 185 266 201 257 221 257 c 0
 261 257 304 290 304 330 c 0
 304 368 272 404 234 404 c 0
 209 404 185 397 185 375 c 2
EndSplineSet
Validated: 37
EndChar

StartChar: uni2619
Encoding: 691 9753 240
Width: 1385
VWidth: 982
Flags: W
HStem: -223 100<1074.06 1180.98> -8 145<590.5 738> 199 78<48.0125 140.94> 253 73<919.225 975.989> 439 106<572.5 745> 534 53<1108.96 1204.07>
VStem: 43 532<147 272.504> 986 33<332.031 411.534> 1207 140<413.539 520.007> 1249 62<-33.5 136.389>
LayerCount: 2
Fore
SplineSet
1176 587 m 0xd740
 1247 587 1347 541 1347 459 c 0
 1347 418 1319 378 1269 378 c 0
 1233 378 1190 388 1190 424 c 0
 1190 453 1207 478 1207 496 c 0xd780
 1207 518 1196 534 1160 534 c 0
 1106 534 1019 433 1019 343 c 0
 1019 307 1038 295 1060 293 c 0
 1202 281 1311 177 1311 28 c 0
 1311 -95 1212 -223 1132 -223 c 0
 1100 -223 1054 -200 1054 -165 c 0
 1054 -141 1084 -127 1110 -123 c 0
 1170 -114 1204 -98 1204 -63 c 0
 1204 -42 1177 -23 1127 -1 c 0
 1067 26 1003 109 979 223 c 0
 975 243 958 253 945 253 c 0xd740
 933 253 913 231 908 204 c 0
 893 127 802 -8 674 -8 c 0
 614 -8 561 40 531 98 c 0
 524 112 517 117 504 117 c 0
 478 117 360 90 341 90 c 0
 269 90 173 120 146 171 c 0
 138 186 110 199 72 199 c 0
 54 199 43 206 43 220 c 0
 43 255 51 271 72 277 c 0
 101 285 129 285 143 289 c 0
 151 291 164 305 174 337 c 0
 180 356 199 369 223 378 c 0
 285 401 353 409 432 409 c 0
 479 409 483 434 504 459 c 0
 551 515 612 545 693 545 c 0xeb40
 797 545 903 436 903 372 c 0
 903 346 924 326 950 326 c 0
 968 326 986 338 986 354 c 0
 986 465 1066 587 1176 587 c 0xd740
555 415 m 0
 555 390 596 351 596 298 c 0
 596 209 575 176 575 152 c 0
 575 142 585 137 596 137 c 0
 646 137 691 196 691 265 c 0
 691 335 647 439 581 439 c 0xcb
 564 439 555 429 555 415 c 0
1043 217 m 0
 1043 134 1154 25 1214 25 c 0
 1242 25 1249 60 1249 92 c 0xc340
 1249 164 1129 247 1068 247 c 0
 1053 247 1043 237 1043 217 c 0
EndSplineSet
Validated: 1
EndChar

StartChar: uniA757
Encoding: 695 42839 233
Width: 460
VWidth: 982
Flags: W
HStem: -272 46<248.002 321.736> -258 46<428.637 486.14> -136 43<174.27 339 422 555.982> -8 45<197.902 317.257> 387 43<159.422 283.215> 397 20G<403 414>
VStem: 22 92<130.89 301.441> 339 83<-209.81 -136 -93 13.9177 51.2877 334.607>
LayerCount: 2
Fore
SplineSet
114 230 m 0x3b
 114 133 170 37 271 37 c 0
 297 37 339 56 339 82 c 2
 339 266 l 2
 339 335 283 387 210 387 c 0
 140 387 114 303 114 230 c 0x3b
325 18 m 0
 283 -5 250 -8 204 -8 c 0
 99 -8 22 94 22 199 c 0
 22 319 108 430 229 430 c 0xbb
 291 430 315 422 353 400 c 0
 362 395 363 395 370 399 c 0
 381 406 398 417 408 417 c 0
 420 417 422 403 422 384 c 2
 422 -93 l 1
 485 -93 l 2
 532 -93 556 -97 556 -115 c 0
 556 -130 540 -136 515 -136 c 2
 422 -136 l 1
 422 -162 l 2
 422 -187 429 -207 446 -212 c 0
 473 -220 487 -228 487 -238 c 0
 487 -248 481 -258 455 -258 c 0x77
 373 -258 305 -272 282 -272 c 0
 256 -272 247 -262 247 -252 c 0
 247 -242 264 -234 291 -226 c 0xb3
 318 -218 339 -187 339 -162 c 2
 339 -136 l 1
 235 -136 l 2
 193 -136 180 -144 162 -175 c 0
 157 -184 151 -189 141 -189 c 0
 127 -189 108 -170 108 -123 c 0
 108 -103 122 -94 145 -94 c 2
 339 -93 l 1
 339 10 l 2
 339 27 330 21 325 18 c 0
EndSplineSet
Validated: 1
EndChar

StartChar: uniA759
Encoding: 696 42841 235
Width: 698
VWidth: 982
Flags: W
HStem: -272 46<248.002 321.736> -258 46<428.637 486.14> -8 45<197.902 317.257> 312 79<491.733 612.5> 387 43<159.422 283.215> 397 20G<403 414>
VStem: 22 92<130.89 301.441> 339 83<-209.81 -116 -68.4485 -39.6582 8 13.9177 51.2877 275.587> 597 81<168.408 291.741>
LayerCount: 2
Fore
SplineSet
325 18 m 0xa380
 283 -5 250 -8 204 -8 c 0
 99 -8 22 94 22 199 c 0
 22 319 108 430 229 430 c 0xab80
 291 430 315 422 353 400 c 0
 362 395 363 395 370 399 c 0
 381 406 398 417 408 417 c 0
 420 417 422 403 422 384 c 2
 422 324 l 1
 467 360 519 391 580 391 c 0
 645 391 678 316 678 252 c 0
 678 171 625 117 560 58 c 0
 528 29 481 -12 422 -56 c 1
 422 -162 l 2
 422 -187 429 -207 446 -212 c 0
 473 -220 487 -228 487 -238 c 0
 487 -248 481 -258 455 -258 c 0x7780
 373 -258 305 -272 282 -272 c 0
 256 -272 247 -262 247 -252 c 0
 247 -242 264 -234 291 -226 c 0
 318 -218 339 -187 339 -162 c 2
 339 -116 l 1
 301 -142 259 -167 216 -191 c 0
 194 -203 156 -277 133 -277 c 0
 119 -277 80 -242 80 -227 c 0
 80 -210 135 -181 178 -157 c 0
 237 -124 291 -88 339 -54 c 1
 339 10 l 2
 339 27 330 21 325 18 c 0xa380
114 230 m 0
 114 133 170 37 271 37 c 0
 297 37 339 56 339 82 c 2
 339 266 l 2
 339 335 283 387 210 387 c 0
 140 387 114 303 114 230 c 0
422 8 m 1
 471 47 507 79 524 95 c 0
 570 138 597 173 597 240 c 0
 597 279 566 312 526 312 c 0x3380
 490 312 455 295 422 255 c 1
 422 8 l 1
EndSplineSet
Validated: 1
EndChar

StartChar: uniFB01
Encoding: 719 64257 196
Width: 535
VWidth: 982
Flags: W
HStem: -2 46<16.002 85.6687 185.28 240.065 290.002 350.287 450.331 519.065> 355 55<44.2508 96.8926 180.026 348.564> 636 54<247.581 373>
VStem: 97 83<53.0419 350.759 410.306 522.062> 356 83<53.0419 347.195>
AnchorPoint: "below_accent" 141 -80 basechar 0
AnchorPoint: "top_accent" 265 785 basechar 0
LayerCount: 2
Fore
SplineSet
295 355 m 2
 196 355 l 2
 184 355 180 346 180 332 c 2
 180 108 l 2
 180 83 185 52 198 48 c 0
 225 40 241 28 241 18 c 0
 241 8 233 -2 207 -2 c 0
 185 -2 155 4 139 4 c 0
 119 4 72 -2 50 -2 c 0
 24 -2 15 8 15 18 c 0
 15 28 32 36 59 44 c 0
 86 52 97 83 97 108 c 2
 97 334 l 2
 97 344 92 352 55 352 c 0
 46 352 23 356 23 366 c 0
 23 380 56 396 84 406 c 0
 95 410 97 424 97 436 c 0
 97 511 181 690 332 690 c 0
 414 690 456 656 456 606 c 0
 456 579 416 561 388 561 c 0
 367 561 369 574 338 605 c 0
 317 626 294 636 280 636 c 0
 200 636 180 515 180 423 c 8
 180 413 189 410 202 410 c 2
 325 412 l 2
 341 412 355 413 360 415 c 0
 388 426 421 438 427 438 c 0
 439 438 439 429 439 409 c 2
 439 108 l 2
 439 83 450 52 477 44 c 0
 504 36 520 28 520 18 c 0
 520 8 512 -2 486 -2 c 0
 464 -2 414 4 398 4 c 0
 378 4 346 -2 324 -2 c 0
 298 -2 289 8 289 18 c 0
 289 28 306 40 333 48 c 0
 353 54 356 83 356 108 c 2
 356 302 l 2
 356 336 340 355 295 355 c 2
EndSplineSet
Validated: 1
EndChar

StartChar: uniFB02
Encoding: 64258 64258 197
Width: 548
VWidth: 982
Flags: W
HStem: -2 46<16.002 85.6687 186.085 250.998 300.002 364.788 463.331 532.065> 355 57<47.561 96.9845 180.026 369> 634 56<227.359 345.027> 661 20G<437.5 446>
VStem: 97 83<53.336 351.063 412.283 544.318> 369 83<53.0419 355 412 609.216>
AnchorPoint: "below_accent" 138 -80 basechar 0
AnchorPoint: "top_accent" 267 785 basechar 0
LayerCount: 2
Fore
SplineSet
395 671 m 0xec
 416 677 435 681 440 681 c 0xdc
 452 681 452 673 452 654 c 2
 452 108 l 2
 452 83 463 52 490 44 c 0
 517 36 533 28 533 18 c 0
 533 8 525 -2 499 -2 c 0
 477 -2 427 4 411 4 c 0
 391 4 356 -2 334 -2 c 0
 308 -2 299 8 299 18 c 0
 299 28 316 36 343 44 c 0
 370 52 369 83 369 108 c 2
 369 355 l 1
 196 355 l 2
 184 355 180 346 180 332 c 2
 180 108 l 2
 180 71 188 50 208 44 c 0
 235 36 252 28 252 18 c 0
 252 8 243 -2 217 -2 c 0
 195 -2 154 4 138 4 c 0
 118 4 72 -2 50 -2 c 0
 24 -2 15 8 15 18 c 0
 15 28 32 36 59 44 c 0
 86 52 97 83 97 108 c 2
 97 338 l 2
 97 346 92 352 55 352 c 0
 46 352 23 356 23 366 c 0
 23 380 56 396 84 406 c 0
 95 410 97 424 97 435 c 0
 97 573 184 690 322 690 c 0
 340 690 361 684 379 674 c 0
 383 672 390 670 395 671 c 0xec
369 412 m 1
 369 550 l 2
 369 574 364 586 349 607 c 0
 338 623 317 634 288 634 c 0xec
 220 634 180 584 180 525 c 2
 180 428 l 2
 180 413 189 412 202 412 c 2
 369 412 l 1
EndSplineSet
Validated: 33
EndChar

StartChar: uniFB03
Encoding: 721 64259 198
Width: 788
VWidth: 982
Flags: W
HStem: -2 46<16.002 85.6687 186.499 241.552 289.763 345.182 438.28 493.065 543.002 603.287 703.331 772.065> 355 55<180.004 349.958 433.026 601.564> 593 56<224.982 335.944> 636 54<486.436 626>
VStem: 97 83<53.0419 351.063 410 519.357> 350 83<46.8919 355 410.002 567.88> 609 83<53.0419 347.195>
LayerCount: 2
Fore
SplineSet
585 690 m 0xde
 667 690 709 656 709 606 c 0
 709 579 669 561 641 561 c 0
 620 561 622 574 591 605 c 0
 570 626 547 636 533 636 c 0xde
 453 636 433 515 433 423 c 8
 433 413 442 410 455 410 c 2
 578 412 l 2
 594 412 608 413 613 415 c 0
 641 426 674 438 680 438 c 0
 692 438 692 429 692 409 c 2
 692 108 l 2
 692 83 703 52 730 44 c 0
 757 36 773 28 773 18 c 0
 773 8 765 -2 739 -2 c 0
 717 -2 667 4 651 4 c 0
 631 4 599 -2 577 -2 c 0
 551 -2 542 8 542 18 c 0
 542 28 559 40 586 48 c 0
 606 54 609 83 609 108 c 2
 609 302 l 2
 609 336 593 355 548 355 c 2
 449 355 l 2
 437 355 433 346 433 332 c 2
 433 108 l 2
 433 83 438 52 451 48 c 0
 478 40 494 28 494 18 c 0
 494 8 486 -2 460 -2 c 0
 438 -2 408 4 392 4 c 0
 373 4 341 -2 319 -2 c 0
 293 -2 289 8 289 18 c 0
 289 28 301 36 328 44 c 0
 347 50 350 83 350 108 c 2
 350 332 l 2
 350 352 344 355 334 355 c 2
 204 355 l 2
 178 355 180 346 180 332 c 2
 180 108 l 2
 180 61 194 49 209 44 c 0
 236 36 242 28 242 18 c 0
 242 8 239 -2 213 -2 c 0
 191 -2 154 4 138 4 c 0
 118 4 72 -2 50 -2 c 0
 24 -2 15 8 15 18 c 0
 15 28 32 36 59 44 c 0
 86 52 97 83 97 108 c 2
 97 338 l 2
 97 346 92 352 55 352 c 0
 46 352 23 356 23 366 c 0
 23 380 57 396 84 406 c 0
 95 410 97 424 97 435 c 0
 97 535 195 649 313 649 c 0xee
 332 649 354 644 384 630 c 0
 396 624 411 615 416 615 c 0
 421 615 424 617 444 639 c 0
 471 668 525 690 585 690 c 0xde
180 426 m 2
 180 406 185 410 193 410 c 2
 333 410 l 2
 354 410 350 412 350 420 c 0
 350 472 356 506 358 511 c 0
 362 524 361 526 357 535 c 0
 339 578 319 593 279 593 c 0xee
 219 593 180 552 180 473 c 2
 180 426 l 2
EndSplineSet
Validated: 33
EndChar

StartChar: uniFB05
Encoding: 64261 64261 200
Width: 606
VWidth: 982
Flags: W
HStem: -8 68<455.072 538.049> -2 46<16.002 85.6687 191.331 260.065> 358 59<442.026 577.625> 636 54<247.302 362>
VStem: 97 83<53.0419 362 424.715 526.088> 359 83<70.1548 354.699 417.08 601.415>
AnchorPoint: "cedilla" 490 5 basechar 0
AnchorPoint: "below_accent" 141 -80 basechar 0
AnchorPoint: "top_accent" 265 785 basechar 0
LayerCount: 2
Fore
SplineSet
344 593 m 0xbc
 326 622 284 636 270 636 c 0
 190 636 180 513 180 425 c 2
 180 108 l 1
 180 83 191 52 218 44 c 0
 245 36 261 28 261 18 c 0
 261 8 253 -2 227 -2 c 0
 205 -2 155 4 139 4 c 0
 119 4 72 -2 50 -2 c 0
 24 -2 15 8 15 18 c 0
 15 28 32 36 59 44 c 0x7c
 86 52 97 83 97 108 c 2
 98 362 l 1
 50 362 l 2
 40 363 23 365 23 375 c 0
 23 389 56 418 84 428 c 0
 95 432 97 438 97 449 c 0
 97 508 181 690 332 690 c 0
 392 690 442 629 442 572 c 2
 442 572 442 487 442 432 c 16
 442 422 451 417 464 417 c 2
 557 417 l 2
 573 417 581 404 581 394 c 0
 581 384 571 358 557 358 c 2
 458 358 l 2
 446 358 442 349 442 335 c 2
 442 152 l 2
 442 82 459 60 494 60 c 0
 531 60 556 78 566 78 c 0
 576 78 581 74 581 64 c 0
 581 41 527 -8 467 -8 c 0
 408 -8 359 21 359 106 c 2
 359 341 l 2
 359 350 365 355 328 355 c 0
 319 355 296 359 296 369 c 0
 296 383 319 399 344 420 c 0
 358 432 360 446 360 465 c 26
 360 525 l 2
 360 551 359 569 344 593 c 0xbc
EndSplineSet
Validated: 33
EndChar

StartChar: uniFB06
Encoding: 722 64262 201
Width: 617
VWidth: 982
Flags: W
HStem: -8 68<466.072 549.049> -8 45<88.028 200.465> 358 59<453.026 588.625> 384 46<140.4 202.709> 605 53<199.564 336.966>
VStem: 35 72<300.9 369.863> 89 47<432.54 541.889> 214 66<55.6462 157> 370 83<70.1548 354.699> 380 73<432.43 560.875>
LayerCount: 2
Fore
SplineSet
167 430 m 0x9b40
 192 430 216 419 247 406 c 0
 254 403 255 400 258 390 c 0
 261 379 263 350 263 341 c 0
 263 329 263 319 251 319 c 0
 241 319 234 327 221 344 c 0
 212 356 184 384 153 384 c 0
 116 384 107 359 107 341 c 0
 107 320 118 308 133 297 c 2
 232 222 l 2
 270 193 280 176 280 138 c 0
 280 44 217 -8 129 -8 c 0
 101 -8 73 -4 63 0 c 0
 48 6 43 7 38 20 c 0
 33 33 21 68 21 83 c 0
 21 100 22 115 32 115 c 0
 42 115 62 106 76 75 c 0
 89 48 120 37 153 37 c 0
 181 37 214 61 214 87 c 0
 214 130 177 150 167 157 c 2
 119 191 l 2
 80 219 35 270 35 305 c 0x5d
 35 354 71 396 111 417 c 1
 102 422 89 441 89 461 c 0
 89 571 170 658 280 658 c 0
 368 658 453 603 453 515 c 2
 453 432 l 2x6b40
 453 422 462 417 475 417 c 2
 568 417 l 2
 584 417 592 404 592 394 c 0
 592 384 582 358 568 358 c 2
 469 358 l 2
 457 358 453 349 453 335 c 2
 453 152 l 2
 453 82 470 60 505 60 c 0
 542 60 567 78 577 78 c 0
 587 78 592 74 592 64 c 0
 592 41 538 -8 478 -8 c 0
 419 -8 370 21 370 106 c 2
 370 341 l 2xa980
 370 350 376 355 339 355 c 0
 330 355 307 359 307 369 c 0
 307 383 344 411 369 432 c 0
 380 441 380 461 380 486 c 0
 380 548 346 605 267 605 c 0
 196 605 136 541 136 470 c 0
 136 448 153 430 167 430 c 0x9b40
EndSplineSet
Validated: 33
EndChar

StartChar: AE.alt
Encoding: 728 -1 117
Width: 903
VWidth: 982
Flags: W
HStem: -2 47<-23.1067 59.331 126.799 187.516 360.953 438.407 571.518 786.76> 276 49<240 368 478 598.346> 545 46<389 590.907> 556 35<209.02 264.672>
AnchorPoint: "top_accent" 336 670 basechar 0
AnchorPoint: "below_accent" 308 -80 basechar 0
AnchorPoint: "cedilla" 87 15 basechar 0
LayerCount: 2
Fore
SplineSet
523 4 m 0xe0
 457 4 419 -2 389 -2 c 0
 376 -2 357 4 357 15 c 0
 357 30 389 35 411 45 c 0
 447 62 445 81 440 98 c 0
 422 158 403 217 384 276 c 1
 217 276 l 1
 188 213 159 150 131 85 c 0
 123 68 124 51 153 43 c 0
 179 36 190 25 190 15 c 0
 190 4 180 -2 155 -2 c 0
 136 -2 92 4 73 4 c 0
 48 4 25 -2 10 -2 c 0
 -9 -2 -27 4 -27 15 c 0
 -27 30 6 35 28 45 c 0
 61 60 60 66 79 106 c 2
 267 511 l 2
 280 540 256 547 225 556 c 0
 216 559 209 564 209 573 c 0
 209 585 223 591 244 591 c 2xd0
 499 591 l 2
 541 591 570 593 588 593 c 0
 604 593 612 588 615 579 c 0
 624 554 653 511 653 500 c 0
 653 488 652 480 640 480 c 0
 628 480 614 494 601 512 c 0
 588 530 568 545 520 545 c 2
 389 545 l 2
 384 545 385 543 386 539 c 2
 461 325 l 1
 544 325 l 2
 576 325 582 330 600 348 c 0
 612 358 611 386 625 386 c 0
 633 386 646 342 664 304 c 0
 678 273 698 239 698 235 c 0
 698 225 698 218 688 218 c 0
 675 218 648 245 642 255 c 0
 635 266 616 276 595 276 c 2
 478 276 l 1
 515 171 l 2
 548 79 583 44 614 44 c 2
 751 45 l 2
 783 45 780 53 808 115 c 0
 813 126 815 134 824 134 c 0
 834 134 837 123 843 109 c 0
 854 83 869 30 861 17 c 0
 853 2 851 -2 834 -2 c 0
 797 -2 629 4 523 4 c 0xe0
368 325 m 1
 352 375 335 424 319 474 c 0
 316 484 313 481 308 471 c 0
 285 422 263 374 240 325 c 1
 368 325 l 1
EndSplineSet
Validated: 1048609
EndChar

StartChar: Adieresis.DEU
Encoding: 795 -1 795
Width: 649
VWidth: 982
Flags: W
HStem: -2 47<23.8269 105.783 170.629 230.516 360.953 438.407 567.486 640.967> 205 46<237.998 384.141> 606 108<173.08 256.92 410.08 493.92>
VStem: 161 108<618.08 701.92> 398 108<618.08 701.92>
LayerCount: 2
Fore
SplineSet
452 714 m 0
 480 714 506 688 506 660 c 0
 506 632 480 606 452 606 c 0
 424 606 398 632 398 660 c 0
 398 688 424 714 452 714 c 0
215 714 m 0
 243 714 269 688 269 660 c 0
 269 632 243 606 215 606 c 0
 187 606 161 632 161 660 c 0
 161 688 187 714 215 714 c 0
EndSplineSet
Refer: 33 65 N 1 0 0 1 0 0 3
Validated: 32769
EndChar

StartChar: Odieresis.DEU
Encoding: 65609 -1 796
Width: 670
VWidth: 982
Flags: W
HStem: -12 46<283.311 440.915> 552 46<258.314 414.707> 606 108<106.08 189.92 509.08 592.92>
VStem: 34 112<206.288 409.475> 94 108<618.08 701.92> 497 108<618.08 701.92> 535 112<193.054 402.242>
LayerCount: 2
Fore
SplineSet
551 714 m 0xe4
 579 714 605 688 605 660 c 0
 605 632 579 606 551 606 c 0
 523 606 497 632 497 660 c 0
 497 688 523 714 551 714 c 0xe4
148 714 m 0
 176 714 202 688 202 660 c 0
 202 632 176 606 148 606 c 0
 120 606 94 632 94 660 c 0xe8
 94 688 120 714 148 714 c 0
EndSplineSet
Refer: 47 79 N 1 0 0 1 0 0 3
Validated: 32769
EndChar

StartChar: c_t
Encoding: 65540 -1 202
Width: 682
VWidth: 982
Flags: W
HStem: -8 68<175.302 303.97 531.072 614.049> 325 101<207.954 284.507> 358 59<518.026 653.625> 605 53<259.219 401.966>
VStem: 20 92<135.917 283.299> 152 46<437.027 547.074> 435 83<70.1548 354.699> 445 73<432.43 560.875>
AnchorPoint: "cedilla" 248 5 basechar 0
LayerCount: 2
Fore
SplineSet
250 426 m 0xdd
 286 420 299 406 299 380 c 0
 299 346 262 325 229 325 c 0
 206 325 185 339 162 339 c 0
 120 339 112 288 112 242 c 0
 112 154 151 60 236 60 c 0
 282 60 331 83 341 83 c 0
 351 83 356 79 356 69 c 0
 356 40 298 -8 200 -8 c 0
 93 -8 20 89 20 195 c 0
 20 285 87 355 133 394 c 0
 146 405 163 420 163 430 c 0
 163 438 152 466 152 489 c 0
 152 590 245 658 345 658 c 0
 433 658 518 603 518 515 c 2
 518 432 l 2xdd
 518 422 527 417 540 417 c 2
 633 417 l 2
 649 417 657 404 657 394 c 0
 657 384 647 358 633 358 c 2
 534 358 l 2
 522 358 518 349 518 335 c 2
 518 152 l 2
 518 82 535 60 570 60 c 0
 607 60 632 78 642 78 c 0
 652 78 657 74 657 64 c 0
 657 41 603 -8 543 -8 c 0
 484 -8 435 21 435 106 c 2
 435 341 l 2xbe
 435 350 441 355 404 355 c 0
 395 355 372 359 372 369 c 0
 372 383 409 411 434 432 c 0
 445 441 445 461 445 486 c 0
 445 548 411 605 332 605 c 0
 261 605 198 551 198 479 c 0
 198 446 220 431 250 426 c 0xdd
EndSplineSet
Validated: 33
Ligature2: "'dlig' optionale Ligaturen in Latin lookup 3 subtable" c t
LCarets2: 1 355 
EndChar

StartChar: dotbelowcomb.cap
Encoding: 760 -1 717
Width: 0
Flags: W
HStem: -195 118<18.6616 109.338>
VStem: 5 118<-181.338 -90.6616>
AnchorPoint: "below_accent" 64 -80 mark 0
LayerCount: 2
Fore
SplineSet
64 -77 m 0
 96 -77 123 -104 123 -136 c 0
 123 -168 96 -195 64 -195 c 0
 32 -195 5 -168 5 -136 c 0
 5 -104 32 -77 64 -77 c 0
EndSplineSet
Validated: 1
EndChar

StartChar: gravecomb.capstack
Encoding: 773 -1 728
Width: 0
Flags: W
HStem: 710 21G<153.5 157.5> 755 59<21.7839 77.8273>
VStem: 5 160
AnchorPoint: "gravestack" 170 710 mark 0
LayerCount: 2
Fore
SplineSet
165 716 m 0
 165 712 160 710 155 710 c 0
 152 710 143 711 137 713 c 0
 106 723 63 738 23 755 c 0
 12 760 5 765 5 770 c 0
 5 781 44 814 55 814 c 0
 60 814 65 812 71 808 c 0
 95 790 142 745 157 731 c 0
 163 725 165 721 165 716 c 0
EndSplineSet
Validated: 1
EndChar

StartChar: gravecomb.flat
Encoding: 779 -1 734
Width: 0
Flags: W
HStem: 499 111
VStem: 0 220
AnchorPoint: "top_accent" 105 590 mark 0
AnchorPoint: "top_stack" 135 532 mark 0
AnchorPoint: "top_stack" 123 650 basemark 0
LayerCount: 2
Fore
SplineSet
179 504 m 0
 135 516 26 549 4 561 c 0
 1 563 0 567 0 570 c 0
 0 582 16 610 40 610 c 0
 47 610 54 607 61 604 c 0
 95 590 198 536 216 517 c 0
 219 513 220 510 220 507 c 0
 220 502 213 499 206 499 c 0
 197 499 187 502 179 504 c 0
EndSplineSet
Validated: 1048577
EndChar

StartChar: hookabovecomb.cap
Encoding: 773 -1 730
Width: 0
Flags: W
HStem: 701 21G<89.5 101> 822 37<58.0961 115.507>
VStem: 68 41<703.245 744.671> 116 61<769.291 821.578>
AnchorPoint: "top_accent" 71 705 mark 0
AnchorPoint: "hookstack" 42 743 mark 0
LayerCount: 2
Fore
SplineSet
29 771 m 0
 11 771 5 788 5 802 c 0
 5 812 9 821 18 826 c 0
 38 838 61 859 99 859 c 0
 138 859 177 847 177 808 c 0
 177 791 162 759 125 743 c 0
 113 738 109 733 109 727 c 0
 109 723 111 718 114 712 c 0
 119 703 106 701 96 701 c 0
 83 701 68 722 68 736 c 0
 68 748 70 759 92 768 c 0
 106 774 116 779 116 800 c 0
 116 813 103 822 91 822 c 0
 72 822 56 806 43 780 c 0
 40 774 35 771 29 771 c 0
EndSplineSet
Validated: 1
EndChar

StartChar: hookabovecomb.stack
Encoding: 786 -1 743
Width: 0
Flags: W
HStem: 550 21G<62 69> 601 37<91.6717 154.244>
VStem: 46 34<550.758 591.143> 98 46<470.666 517.298> 156 54<549.534 598.638>
AnchorPoint: "hookstack" 132 475 mark 0
LayerCount: 2
Fore
SplineSet
66 550 m 0
 58 550 46 567 46 581 c 0
 46 591 52 598 59 605 c 0
 69 615 100 638 137 638 c 0
 173 638 210 619 210 585 c 0
 210 551 189 531 160 514 c 16
 152 509 144 499 144 493 c 0
 144 489 146 481 149 475 c 0
 154 466 142 464 132 464 c 0
 122 464 98 491 98 505 c 0
 98 522 113 533 125 543 c 0
 138 554 156 557 156 575 c 0
 156 593 137 601 119 601 c 0
 96 601 92 584 80 559 c 0
 78 554 72 550 66 550 c 0
EndSplineSet
Validated: 1
EndChar

StartChar: l_l
Encoding: 734 -1 225
Width: 484
VWidth: 982
Flags: W
HStem: -2 46<16.002 85.6687 185.631 229.418 257.891 303.469 399.331 468.065> 661 20G<163 174 371 382>
VStem: 97 83<53.0816 603.762> 305 83<53.0419 603.762>
AnchorPoint: "below_accent" 141 -80 basechar 0
AnchorPoint: "top_accent" 140 785 basechar 0
LayerCount: 2
Fore
SplineSet
305 567 m 2
 305 584 290 604 266 613 c 0
 255 617 243 625 243 636 c 0
 243 647 258 655 272 657 c 0
 312 664 366 681 376 681 c 0
 388 681 388 673 388 654 c 2
 388 108 l 2
 388 83 399 52 426 44 c 0
 453 36 469 28 469 18 c 0
 469 8 461 -2 435 -2 c 0
 413 -2 363 4 347 4 c 0
 327 4 309 -2 287 -2 c 0
 261 -2 257 8 257 18 c 0
 257 28 273 41 284 44 c 0
 304 50 305 55 305 108 c 2
 305 567 l 2
97 567 m 2
 97 584 82 604 58 613 c 0
 47 617 35 625 35 636 c 0
 35 647 50 655 64 657 c 0
 104 664 158 681 168 681 c 0
 180 681 180 673 180 654 c 2
 180 108 l 2
 180 72 188 49 204 44 c 0
 220 39 230 28 230 18 c 0
 230 8 221 -2 195 -2 c 0
 173 -2 155 4 139 4 c 0
 119 4 72 -2 50 -2 c 0
 24 -2 15 8 15 18 c 0
 15 28 32 36 59 44 c 0
 86 52 97 83 97 108 c 2
 97 567 l 2
EndSplineSet
Validated: 1
EndChar

StartChar: longs_i
Encoding: 731 -1 220
Width: 535
VWidth: 982
Flags: W
HStem: -2 46<16.002 85.6687 185.28 240.065 290.002 350.287 450.331 519.065> 636 54<247.581 373>
VStem: 97 83<53.0419 362 424.715 526.088> 356 83<53.0419 341.382>
AnchorPoint: "below_accent" 141 -80 basechar 0
AnchorPoint: "top_accent" 265 785 basechar 0
LayerCount: 2
Fore
SplineSet
356 302 m 2
 356 319 339 344 315 353 c 0
 304 357 294 363 294 374 c 0
 294 385 310 393 323 399 c 0
 334 405 417 438 427 438 c 0
 439 438 439 429 439 409 c 2
 439 108 l 2
 439 83 450 52 477 44 c 0
 504 36 520 28 520 18 c 0
 520 8 512 -2 486 -2 c 0
 464 -2 414 4 398 4 c 0
 378 4 346 -2 324 -2 c 0
 298 -2 289 8 289 18 c 0
 289 28 306 40 333 48 c 0
 353 54 356 83 356 108 c 2
 356 302 l 2
50 362 m 2
 40 363 23 365 23 375 c 0
 23 389 56 418 84 428 c 0
 95 432 97 438 97 449 c 0
 97 508 181 690 332 690 c 0
 414 690 456 656 456 606 c 0
 456 579 416 561 388 561 c 0
 367 561 369 574 338 605 c 0
 317 626 294 636 280 636 c 0
 200 636 180 513 180 425 c 2
 180 108 l 2
 180 83 185 52 198 48 c 0
 225 40 241 28 241 18 c 0
 241 8 233 -2 207 -2 c 0
 185 -2 155 4 139 4 c 0
 119 4 72 -2 50 -2 c 0
 24 -2 15 8 15 18 c 0
 15 28 32 36 59 44 c 0
 86 52 97 83 97 108 c 2
 98 362 l 1
 50 362 l 2
EndSplineSet
Validated: 1
Ligature2: "liga_standard subtable" longs i
LCarets2: 1 265 
EndChar

StartChar: longs_longs
Encoding: 731 -1 222
Width: 552
VWidth: 982
Flags: W
HStem: -2 46<16.002 85.6687 186.499 241.552 289.763 345.182 444.331 513.065> 559 21G<646 670.5> 593 56<228.413 335.944> 634 56<501.866 601.851>
VStem: 97 83<53.0419 362 424.715 519.758> 350 83<53.0419 362 424.715 575.15>
LayerCount: 2
Fore
SplineSet
350 449 m 0xdc
 350 485 356 506 358 511 c 0
 362 524 361 526 357 535 c 0
 339 578 319 593 279 593 c 0
 219 593 180 553 180 473 c 2
 180 108 l 2
 180 61 194 49 209 44 c 0
 236 36 242 28 242 18 c 0
 242 8 239 -2 213 -2 c 0
 191 -2 154 4 138 4 c 0
 118 4 72 -2 50 -2 c 0
 24 -2 15 8 15 18 c 0
 15 28 32 36 59 44 c 0
 86 52 97 83 97 108 c 2
 97 362 l 1
 49 362 l 2
 39 362 22 365 22 375 c 0
 22 389 55 418 83 428 c 0
 94 432 97 438 97 449 c 0
 97 524 195 649 313 649 c 0xec
 332 649 354 644 384 630 c 0
 396 624 412 612 417 612 c 0
 422 612 435 622 448 633 c 0
 491 669 536 690 597 690 c 0
 648 690 695 642 695 605 c 0
 695 581 683 559 658 559 c 0
 634 559 621 586 606 607 c 0
 595 623 571 634 542 634 c 0
 474 634 433 557 433 498 c 2
 433 108 l 2
 433 83 444 52 471 44 c 0
 498 36 514 28 514 18 c 0
 514 8 506 -2 480 -2 c 0
 458 -2 407 4 391 4 c 0
 371 4 341 -2 319 -2 c 0
 293 -2 289 8 289 18 c 0
 289 28 301 36 328 44 c 0
 347 50 350 83 350 108 c 2
 351 362 l 2
 303 362 l 2
 293 362 276 365 276 375 c 0
 276 389 309 418 337 428 c 0
 348 432 350 438 350 449 c 0xdc
EndSplineSet
Validated: 1
Ligature2: "liga_standard subtable" longs longs
LCarets2: 1 267 
EndChar

StartChar: longs_longs_l
Encoding: 65606 -1 753
Width: 788
VWidth: 982
Flags: W
HStem: -2 46<16.002 85.6687 186.499 241.552 289.763 345.182 440.178 499.438 541.613 601.822 703.331 772.065> 593 56<228.413 335.944> 636 54<493.642 578.472> 661 20G<678.5 686>
VStem: 97 83<53.0419 362 424.715 519.758> 350 83<48.0357 362 424.715 567.381> 609 83<53.0419 604.11>
LayerCount: 2
Fore
SplineSet
392 4 m 0xae
 371 4 341 -2 319 -2 c 0
 293 -2 289 8 289 18 c 0
 289 28 301 36 328 44 c 0
 347 50 350 83 350 108 c 2
 351 362 l 2
 303 362 l 2
 293 362 276 365 276 375 c 0
 276 389 309 418 337 428 c 0
 348 432 350 438 350 449 c 0
 350 485 356 506 358 511 c 0
 362 524 361 526 357 535 c 0
 339 578 319 593 279 593 c 0
 219 593 180 553 180 473 c 2
 180 108 l 2
 180 61 194 49 209 44 c 0
 236 36 242 28 242 18 c 0
 242 8 239 -2 213 -2 c 0
 191 -2 154 4 138 4 c 0
 118 4 72 -2 50 -2 c 0
 24 -2 15 8 15 18 c 0
 15 28 32 36 59 44 c 0
 86 52 97 83 97 108 c 2
 97 362 l 1
 49 362 l 2
 39 362 22 365 22 375 c 0
 22 389 55 418 83 428 c 0
 94 432 97 438 97 449 c 0
 97 524 195 649 313 649 c 0xce
 332 649 354 644 384 630 c 0
 396 624 412 612 417 612 c 0
 422 612 435 621 448 633 c 0
 484 666 515 690 572 690 c 0xae
 596 690 618 687 636 682 c 0
 641 681 659 677 664 678 c 0
 672 680 677 681 680 681 c 0x9e
 692 681 692 673 692 654 c 2
 692 108 l 2
 692 83 703 52 730 44 c 0
 757 36 773 28 773 18 c 0
 773 8 765 -2 739 -2 c 0
 717 -2 667 4 651 4 c 0
 631 4 591 -2 569 -2 c 0
 543 -2 541 8 541 18 c 0
 541 28 551 36 578 44 c 0
 605 52 609 83 609 108 c 2
 609 539 l 2
 609 568 605 586 588 605 c 0
 567 628 547 636 533 636 c 0
 453 636 433 513 433 425 c 2
 433 108 l 1
 433 83 437 52 464 44 c 0
 491 36 500 28 500 18 c 0
 500 8 499 -2 473 -2 c 0
 451 -2 408 4 392 4 c 0xae
EndSplineSet
Validated: 1
Ligature2: "liga_standard subtable" longs longs l
LCarets2: 2 256 530 
EndChar

StartChar: longs_s
Encoding: 796 -1 754
Width: 566
VWidth: 982
Flags: W
HStem: -8 45<353.028 465.465> -2 46<16.002 85.6687 192.097 260.065> 384 46<377.634 467.612> 636 54<247.581 335.513>
VStem: 97 83<53.0419 362 424.715 526.088> 300 72<300.9 373.971> 479 66<55.6462 157>
LayerCount: 2
Fore
SplineSet
428 430 m 0xbe
 459 430 481 419 512 406 c 24
 519 403 520 400 523 390 c 0
 526 379 528 350 528 341 c 0
 528 329 528 319 516 319 c 0
 506 319 499 327 486 344 c 0
 477 356 449 384 418 384 c 0
 381 384 372 359 372 341 c 0
 372 320 383 308 398 297 c 2
 497 222 l 2
 535 193 545 176 545 138 c 0
 545 44 482 -8 394 -8 c 0
 366 -8 338 -4 328 0 c 0
 313 6 308 7 303 20 c 0
 298 33 286 68 286 83 c 0
 286 100 287 115 297 115 c 0
 307 115 327 106 341 75 c 0
 354 48 385 37 418 37 c 0
 446 37 479 61 479 87 c 0
 479 130 442 150 432 157 c 2
 384 191 l 2
 345 219 300 270 300 305 c 8
 300 375 358 430 428 430 c 0xbe
50 362 m 2
 40 363 23 365 23 375 c 0
 23 389 56 418 84 428 c 0
 95 432 97 438 97 449 c 0
 97 508 181 690 332 690 c 0
 414 690 466 658 466 608 c 0
 466 585 448 562 423 562 c 0
 403 562 381 577 348 605 c 0
 324 625 294 636 280 636 c 0
 200 636 180 513 180 425 c 2
 180 108 l 1
 180 83 191 52 218 44 c 0
 245 36 261 28 261 18 c 0
 261 8 253 -2 227 -2 c 0
 205 -2 155 4 139 4 c 0
 119 4 72 -2 50 -2 c 0
 24 -2 15 8 15 18 c 0
 15 28 32 36 59 44 c 0x7e
 86 52 97 83 97 108 c 2
 98 362 l 1
 50 362 l 2
EndSplineSet
Validated: 1
Ligature2: "liga_standard subtable" longs s
LCarets2: 1 276 
EndChar

StartChar: m.fina
Encoding: 738 -1 251
Width: 1441
VWidth: 982
Flags: W
HStem: -6 77<854.031 1210.22> -2 46<20.7626 85.6687 185.388 240.334 304.763 360.205 454.388 509.333 573.763 629.205> 4 75<718.171 918.604> 378 52<226.223 328.743 494.865 597.325>
VStem: 97 83<53.0419 340.366> 366 83<44.6405 337.439> 635 83<79.3235 337.284> 1347 76<145.075 276.763>
LayerCount: 2
Fore
SplineSet
677 4 m 0x3f
 655 4 625 -2 603 -2 c 0
 577 -2 573 8 573 18 c 0
 573 28 585 36 612 44 c 0
 630 49 635 83 635 108 c 2
 635 261 l 2
 635 320 600 378 548 378 c 0
 489 378 449 339 449 268 c 2
 449 108 l 2
 449 83 453 50 472 44 c 0
 499 36 510 28 510 18 c 0
 510 8 507 -2 481 -2 c 0x5f
 459 -2 424 4 408 4 c 0x3f
 389 4 356 -2 334 -2 c 0
 308 -2 304 8 304 18 c 0
 304 28 316 36 343 44 c 0
 361 49 366 83 366 108 c 2
 366 261 l 2
 366 320 331 378 279 378 c 0
 221 378 181 344 181 268 c 2
 180 108 l 2
 180 83 184 50 203 44 c 0
 230 36 241 28 241 18 c 0
 241 8 238 -2 212 -2 c 0x5f
 190 -2 155 4 139 4 c 0x3f
 119 4 72 -2 50 -2 c 0
 24 -2 20 8 20 18 c 0
 20 28 32 36 59 44 c 0x5f
 86 52 97 83 97 108 c 2
 97 302 l 2
 97 319 80 344 56 353 c 0
 45 357 35 363 35 374 c 0
 35 385 51 393 64 399 c 0
 75 405 158 438 168 438 c 0
 180 438 180 429 180 410 c 2
 180 385 l 2
 180 370 192 384 200 391 c 0
 233 418 272 430 324 430 c 0
 368 430 406 403 427 369 c 0
 430 365 432 364 434 364 c 0
 439 364 450 375 469 391 c 0
 502 418 541 430 593 430 c 0
 663 430 718 364 718 291 c 2
 718 110 l 2
 718 77 722 79 751 79 c 0x3f
 906 79 996 71 1152 71 c 0
 1278 71 1347 97 1347 213 c 0
 1347 239 1340 251 1340 260 c 0
 1340 284 1349 308 1377 308 c 0
 1394 308 1423 280 1423 236 c 0
 1423 67 1240 -6 1038 -6 c 0x9f
 893 -6 790 4 677 4 c 0x3f
EndSplineSet
Validated: 33
EndChar

StartChar: t.fina
Encoding: 65612 -1 801
Width: 793
VWidth: 982
Flags: W
HStem: -5 79<184.998 577.046> 358 59<161.026 296.625>
VStem: 78 83<101.194 354.699> 693 76<128.393 255.038>
AnchorPoint: "top_accent" 155 596 basechar 0
AnchorPoint: "cedilla" 209 5 basechar 0
AnchorPoint: "top_right" 260 580 basechar 0
AnchorPoint: "below_accent" 174 -80 basechar 0
LayerCount: 2
Fore
SplineSet
186 -5 m 0
 127 -5 78 24 78 109 c 2
 78 341 l 2
 78 350 84 355 47 355 c 0
 38 355 15 359 15 369 c 0
 15 383 57 416 82 437 c 0
 96 449 124 485 137 485 c 0
 149 485 161 477 161 460 c 2
 161 432 l 18
 161 422 170 417 183 417 c 2
 276 417 l 2
 292 417 300 404 300 394 c 0
 300 384 290 358 276 358 c 2
 177 358 l 2
 165 358 161 349 161 335 c 2
 161 164 l 2
 161 94 206 74 241 74 c 0
 278 74 342 72 498 72 c 0
 624 72 693 105 693 194 c 0
 693 220 676 232 676 241 c 0
 676 265 685 289 713 289 c 0
 730 289 769 261 769 217 c 0
 769 48 586 -5 384 -5 c 0
 239 -5 246 -5 186 -5 c 0
EndSplineSet
Validated: 33
EndChar

StartChar: tildecomb.stack
Encoding: 65595 -1 739
Width: 0
Flags: W
HStem: 470 61<85.6969 225.946> 486 61<50.8355 192.803>
VStem: 5 268
AnchorPoint: "top_accent" 146 572 mark 0
AnchorPoint: "top_stack" 139 473 mark 0
AnchorPoint: "acutestack" 155 590 basemark 0
AnchorPoint: "gravestack" 150 590 basemark 0
AnchorPoint: "top_stack" 139 600 basemark 0
LayerCount: 2
Fore
SplineSet
19 458 m 0x60
 9 458 5 468 5 478 c 0
 5 488 68 547 93 547 c 0x60
 118 547 175 531 200 531 c 0
 235 531 249 562 257 562 c 0
 267 562 273 555 273 545 c 0
 273 535 213 470 188 470 c 0xa0
 163 470 101 486 76 486 c 0
 51 486 27 458 19 458 c 0x60
EndSplineSet
Validated: 1
EndChar

StartChar: uni0302.cap
Encoding: 745 -1 702
Width: 0
Flags: W
HStem: 681 127
VStem: 5 291<685 695>
AnchorPoint: "top_accent" 151 705 mark 0
AnchorPoint: "top_stack" 151 685 mark 0
AnchorPoint: "hookstack" 249 775 basemark 0
AnchorPoint: "acutestack" 241 758 basemark 0
AnchorPoint: "gravestack" 61 758 basemark 0
AnchorPoint: "top_stack" 151 830 basemark 0
LayerCount: 2
Fore
SplineSet
20 681 m 0
 11 681 5 685 5 691 c 0
 5 695 7 699 12 703 c 2
 110 786 l 2
 129 803 136 808 151 808 c 0
 166 808 173 803 192 786 c 2
 290 703 l 2
 295 699 296 695 296 691 c 0
 296 685 291 680 282 680 c 0
 269 680 187 715 161 730 c 0
 152 735 150 735 141 730 c 0
 115 715 33 681 20 681 c 0
EndSplineSet
Validated: 1
EndChar

StartChar: uni0302.flat
Encoding: 65587 -1 731
Width: 0
Flags: W
HStem: 701 111
VStem: 5 261<706 715>
AnchorPoint: "top_accent" 137 785 mark 0
LayerCount: 2
Fore
SplineSet
146 739 m 2
 138 743 134 743 126 739 c 2
 72 718 l 2
 59 713 33 701 20 701 c 0
 11 701 5 705 5 711 c 0
 5 715 7 719 12 723 c 2
 98 790 l 2
 110 799 125 812 136 812 c 0
 147 812 162 799 174 790 c 2
 260 724 l 2
 265 720 266 716 266 712 c 0
 266 706 261 701 252 701 c 0
 239 701 212 713 200 718 c 2
 146 739 l 2
EndSplineSet
Validated: 1
EndChar

StartChar: uni0304.stack
Encoding: 783 -1 740
Width: 0
Flags: W
HStem: 490 55<53.9478 305.949>
VStem: 50 260<491.76 544.782>
AnchorPoint: "top_accent" 180 572 mark 0
AnchorPoint: "top_stack" 180 491 mark 0
AnchorPoint: "acutestack" 182 570 basemark 0
AnchorPoint: "gravestack" 186 570 basemark 0
AnchorPoint: "top_stack" 180 590 basemark 0
LayerCount: 2
Fore
SplineSet
74 545 m 2
 297 545 l 2
 303 545 310 539 310 533 c 0
 310 511 298 490 279 490 c 2
 64 490 l 2
 57 490 50 496 50 502 c 0
 50 511 56 545 74 545 c 2
EndSplineSet
Validated: 1
EndChar

StartChar: uni0307.cap
Encoding: 755 -1 712
Width: 0
Flags: W
HStem: 687 118<18.6616 109.338>
VStem: 5 118<700.662 791.338>
AnchorPoint: "top_accent" 68 705 mark 0
AnchorPoint: "top_stack" 60 725 mark 0
AnchorPoint: "top_stack" 60 830 basemark 0
LayerCount: 2
Fore
SplineSet
64 805 m 0
 96 805 123 778 123 746 c 0
 123 714 96 687 64 687 c 0
 32 687 5 714 5 746 c 0
 5 778 32 805 64 805 c 0
EndSplineSet
Validated: 1
EndChar

StartChar: uni0307.stack
Encoding: 787 -1 742
Width: 0
Flags: W
HStem: 493 109<66.0803 150.845>
VStem: 54 109<505.08 589.845>
AnchorPoint: "top_accent" 109 572 mark 0
AnchorPoint: "top_stack" 111 500 mark 0
AnchorPoint: "top_stack" 111 640 basemark 0
LayerCount: 2
Fore
SplineSet
54 547 m 0
 54 576 80 602 108 602 c 0
 137 602 163 576 163 547 c 0
 163 519 137 493 108 493 c 0
 80 493 54 519 54 547 c 0
EndSplineSet
Validated: 1048577
EndChar

StartChar: uni0308.cap
Encoding: 65563 -1 707
Width: 0
Flags: W
HStem: 687 108<17.0803 100.92 204.08 287.92>
VStem: 5 108<699.08 782.92> 192 108<699.08 782.92>
AnchorPoint: "top_accent" 150 705 mark 0
AnchorPoint: "top_stack" 152 689 mark 0
AnchorPoint: "acutestack" 90 816 basemark 0
AnchorPoint: "gravestack" 182 814 basemark 0
AnchorPoint: "top_stack" 152 825 basemark 0
LayerCount: 2
Fore
SplineSet
246 795 m 0
 274 795 300 769 300 741 c 0
 300 713 274 687 246 687 c 0
 218 687 192 713 192 741 c 0
 192 769 218 795 246 795 c 0
59 795 m 0
 87 795 113 769 113 741 c 0
 113 713 87 687 59 687 c 0
 31 687 5 713 5 741 c 0
 5 769 31 795 59 795 c 0
EndSplineSet
Validated: 1
EndChar

StartChar: uni030A.stack
Encoding: 789 -1 744
Width: 1000
Flags: W
HStem: 464 31<84.4266 145.034> 584 31<78.9906 142.667>
VStem: 28 45<500.742 581.109> 152 44<498.247 579.066>
AnchorPoint: "top_accent" 111 572 mark 0
AnchorPoint: "top_stack" 111 630 basemark 0
LayerCount: 2
Fore
SplineSet
115 615 m 0
 155 615 196 585 196 545 c 0
 196 502 149 464 109 464 c 0
 69 464 28 499 28 539 c 0
 28 579 75 615 115 615 c 0
73 544 m 0
 73 519 88 495 116 495 c 0
 144 495 152 518 152 538 c 0
 152 567 134 584 109 584 c 0
 81 584 73 563 73 544 c 0
EndSplineSet
Validated: 1048577
EndChar

StartChar: uni030C.alt
Encoding: 65589 -1 733
Width: 0
Flags: W
HStem: 512 193<19.0438 33.5117>
VStem: 7 67<577.95 691.439>
AnchorPoint: "top_left" 18 596 mark 0
AnchorPoint: "top_right" 20 608 mark 0
LayerCount: 2
Fore
SplineSet
5 657 m 0
 5 678 40 705 61 705 c 0
 73 705 74 691 74 675 c 0
 74 638 53 574 35 537 c 0
 27 520 20 512 14 512 c 0
 10 512 7 522 7 535 c 0
 7 540 10 569 10 584 c 0
 10 621 5 641 5 657 c 0
EndSplineSet
Validated: 1
EndChar

StartChar: uni030C.flat
Encoding: 775 -1 732
Width: 0
Flags: W
HStem: 688 111
VStem: 5 261<785 794>
AnchorPoint: "top_accent" 137 785 mark 0
LayerCount: 2
Fore
SplineSet
146 758 m 2
 200 781 l 2
 213 786 239 799 252 799 c 0
 261 799 266 794 266 788 c 0
 266 784 264 779 260 776 c 2
 174 710 l 2
 162 701 147 688 136 688 c 0
 125 688 110 701 98 710 c 2
 12 777 l 2
 7 781 5 785 5 789 c 0
 5 795 11 799 20 799 c 0
 33 799 59 786 72 781 c 2
 126 758 l 2
 134 754 138 754 146 758 c 2
EndSplineSet
Validated: 1
EndChar

StartChar: uni030F.cap
Encoding: 771 -1 726
Width: 0
Flags: W
HStem: 700 157
VStem: 5 285
AnchorPoint: "top_accent" 161 705 mark 0
LayerCount: 2
Fore
SplineSet
94 836 m 0
 108 812 148 722 148 712 c 0
 148 705 143 700 137 700 c 0
 129 700 115 711 109 718 c 0
 95 734 43 785 22 803 c 0
 13 811 5 820 5 829 c 0
 5 846 33 857 64 857 c 0
 77 857 84 852 94 836 c 0
146 829 m 0
 146 845 182 857 206 857 c 0
 219 857 226 852 236 836 c 0
 250 812 290 720 290 713 c 0
 290 705 284 700 279 700 c 0
 271 700 257 711 251 718 c 0
 237 734 185 785 164 803 c 0
 155 811 146 821 146 829 c 0
EndSplineSet
Validated: 1
EndChar

StartChar: uni0311.cap
Encoding: 65566 -1 710
Width: 0
Flags: W
HStem: 692 21G<10 20 264 274> 754 66<63.6606 220.339>
VStem: 5 274<703 756>
AnchorPoint: "top_accent" 144 705 mark 0
LayerCount: 2
Fore
SplineSet
245 713 m 0
 218 745 185 754 142 754 c 0
 99 754 66 745 39 713 c 0
 33 705 25 692 15 692 c 0
 5 692 5 703 5 716 c 0
 5 756 57 820 142 820 c 0
 227 820 279 756 279 716 c 0
 279 703 279 692 269 692 c 0
 259 692 251 705 245 713 c 0
EndSplineSet
Validated: 1
EndChar

StartChar: uni0316.cap
Encoding: 758 -1 715
Width: 0
Flags: W
HStem: -215 153
VStem: 6 167
AnchorPoint: "below_accent" 85 -80 mark 0
LayerCount: 2
Fore
SplineSet
167 -215 m 0
 164 -215 158 -213 149 -206 c 0
 109 -176 59 -138 19 -104 c 0
 10 -96 6 -92 6 -85 c 0
 6 -71 56 -62 70 -62 c 0
 81 -62 90 -65 97 -75 c 0
 124 -114 144 -154 168 -194 c 0
 171 -199 173 -205 173 -209 c 0
 173 -212 171 -215 167 -215 c 0
EndSplineSet
Validated: 1
EndChar

StartChar: uni032C.cap
Encoding: 65576 -1 720
Width: 0
Flags: W
HStem: -200 122
VStem: 5 291<-92 -82>
AnchorPoint: "below_accent" 151 -80 mark 0
LayerCount: 2
Fore
SplineSet
20 -78 m 0
 33 -78 115 -114 141 -129 c 0
 150 -134 152 -134 161 -129 c 0
 187 -114 269 -77 282 -77 c 0
 291 -77 296 -82 296 -88 c 0
 296 -92 295 -96 290 -100 c 2
 192 -178 l 2
 172 -194 166 -200 151 -200 c 0
 136 -200 130 -194 110 -178 c 2
 12 -100 l 2
 7 -96 5 -92 5 -88 c 0
 5 -82 11 -78 20 -78 c 0
EndSplineSet
Validated: 1
EndChar

StartChar: uni032E.cap
Encoding: 767 -1 722
Width: 0
Flags: W
HStem: -208 66<60.4689 217.127>
VStem: 5 274<-144 -91>
AnchorPoint: "below_accent" 145 -80 mark 0
LayerCount: 2
Fore
SplineSet
39 -101 m 0
 66 -133 99 -142 142 -142 c 0
 185 -142 218 -133 245 -101 c 0
 251 -93 259 -80 269 -80 c 0
 279 -80 279 -91 279 -104 c 0
 279 -144 222 -208 137 -208 c 0
 52 -208 5 -144 5 -104 c 0
 5 -91 9 -80 15 -80 c 0
 25 -80 33 -93 39 -101 c 0
EndSplineSet
Validated: 1
EndChar

StartChar: uni0331.cap
Encoding: 768 -1 725
Width: 1000
Flags: W
HStem: -167 60<9.62363 298.042>
VStem: 5 300<-163.836 -107.25>
AnchorPoint: "below_accent" 160 -80 mark 0
LayerCount: 2
Fore
SplineSet
29 -107 m 2
 292 -107 l 2
 298 -107 305 -113 305 -119 c 0
 305 -139 290 -167 274 -167 c 2
 19 -167 l 2
 12 -167 5 -161 5 -155 c 0
 5 -146 10 -107 29 -107 c 2
EndSplineSet
Validated: 1
EndChar
